<?xml version="1.0" standalone="no"?>
<!DOCTYPE svg PUBLIC "-//W3C//DTD SVG 20010904//EN"
 "http://www.w3.org/TR/2001/REC-SVG-20010904/DTD/svg10.dtd">
<svg version="1.0" xmlns="http://www.w3.org/2000/svg"
 width="1540.000000pt" height="1540.000000pt" viewBox="0 0 1540.000000 1540.000000"
 preserveAspectRatio="xMidYMid meet">
<metadata>
Created by potrace 1.11, written by Peter Selinger 2001-2013
</metadata>
<g transform="translate(0.000000,1540.000000) scale(0.100000,-0.100000)"
fill="#000000" stroke="none">
<path d="M12197 13914 c-1 -1 -104 -4 -228 -8 -124 -4 -245 -9 -270 -11 -182
-19 -198 -22 -284 -45 -66 -17 -108 -21 -455 -36 -98 -4 -146 -11 -177 -24
-100 -44 -198 -132 -328 -295 -44 -55 -82 -102 -85 -105 -3 -3 -17 -21 -32
-40 -34 -44 -103 -117 -145 -152 -24 -19 -195 -80 -635 -227 -389 -130 -618
-211 -646 -229 -23 -16 -79 -62 -124 -103 -135 -124 -190 -156 -298 -177 -118
-24 -121 -23 -114 6 7 30 39 86 87 150 28 38 32 51 32 107 0 54 -4 67 -25 90
-14 15 -36 33 -50 40 -14 7 -35 23 -48 35 -23 21 -23 24 -16 158 4 76 8 179 8
231 l1 95 -41 29 c-34 24 -51 28 -105 29 -119 1 -273 -55 -396 -145 l-62 -46
-36 29 c-48 38 -71 68 -101 134 -36 79 -55 194 -54 324 0 113 0 113 -22 107
-130 -39 -212 -122 -254 -256 -19 -64 -20 -64 -116 -20 -26 11 -51 21 -56 21
-9 0 -32 -41 -50 -89 -8 -22 -8 -22 -49 8 -72 52 -102 145 -105 324 -2 84 -9
85 -104 18 -71 -51 -106 -93 -227 -281 -68 -105 -79 -110 -130 -62 -32 30 -87
139 -87 170 0 36 -16 33 -64 -14 -49 -47 -90 -121 -101 -186 -7 -37 -8 -38
-50 -38 -40 0 -45 3 -73 48 -67 105 -126 234 -144 312 -13 57 -29 69 -79 62
-26 -4 -35 -18 -95 -141 -75 -156 -99 -222 -116 -320 l-12 -71 -41 7 c-22 3
-53 12 -68 20 -28 14 -30 13 -72 -29 -50 -50 -64 -92 -66 -195 -1 -61 -4 -71
-18 -66 -65 23 -108 54 -190 137 -52 53 -98 96 -102 96 -7 0 -10 -17 -25 -114
-3 -21 -8 -48 -10 -60 -2 -11 -17 -100 -34 -196 -16 -96 -32 -191 -35 -210 -3
-19 -44 -107 -89 -195 -146 -281 -176 -386 -185 -644 -1 -23 -3 -23 -68 -17
-38 3 -154 9 -260 12 l-191 6 3 -39 c16 -181 46 -275 117 -365 27 -34 28 -39
18 -85 -6 -26 -27 -72 -47 -101 -32 -46 -48 -59 -127 -97 -50 -24 -104 -47
-119 -51 l-28 -6 6 -66 c7 -76 22 -117 62 -168 17 -23 28 -51 30 -75 2 -39 -4
-44 -57 -41 -132 7 -207 25 -270 64 -18 11 -23 10 -40 -12 -11 -14 -20 -34
-20 -45 0 -36 38 -160 76 -246 37 -84 49 -117 64 -176 l8 -33 -64 0 c-75 0
-76 -2 -34 -87 26 -53 38 -64 90 -92 68 -36 68 -24 -2 -139 -55 -90 -81 -175
-75 -240 8 -74 23 -93 93 -112 68 -20 67 -15 23 -136 -16 -44 -29 -87 -29 -96
0 -8 20 -33 45 -56 l45 -41 -6 -58 c-3 -32 -14 -94 -24 -138 -28 -119 -30
-132 -37 -232 l-6 -92 29 4 c16 3 45 8 64 11 19 3 45 12 58 20 67 44 79 18 31
-72 -45 -88 -42 -86 -134 -64 -172 43 -308 113 -547 283 -245 174 -354 236
-506 291 -71 25 -270 81 -322 90 -14 2 -68 13 -120 24 -52 12 -111 24 -130 27
-144 25 -361 88 -467 136 l-66 29 6 103 c8 130 34 232 98 377 126 281 151 357
163 485 4 44 -17 105 -58 174 -22 35 -65 144 -106 266 -110 324 -189 457 -333
558 -69 49 -117 70 -262 117 -97 31 -205 85 -205 103 0 4 -8 6 -17 3 -10 -3
-60 -6 -110 -8 -69 -1 -93 -5 -93 -15 0 -26 52 -115 92 -159 44 -48 45 -51 49
-199 3 -87 2 -90 -19 -88 -52 6 -140 56 -302 174 -131 94 -186 129 -204 129
-10 0 -16 -19 -21 -66 -12 -108 -1 -179 39 -258 30 -59 37 -85 41 -149 2 -42
0 -77 -4 -77 -20 0 -102 34 -224 94 -119 58 -228 95 -281 96 -15 0 -17 -5 -12
-32 3 -18 8 -47 11 -65 22 -132 135 -448 260 -730 70 -158 72 -165 74 -250 4
-156 11 -247 23 -283 9 -31 44 -91 149 -263 23 -38 34 -86 54 -227 2 -14 6
-45 10 -70 10 -71 13 -92 20 -140 9 -63 37 -99 137 -181 47 -38 97 -84 111
-102 48 -63 52 -130 17 -247 -45 -152 6 -286 189 -490 l41 -45 24 27 c16 18
26 44 31 83 8 66 27 117 62 163 46 62 50 43 68 -323 11 -218 36 -287 164 -450
58 -73 225 -244 349 -356 40 -37 72 -75 72 -85 1 -16 2 -16 9 -4 11 20 20 72
36 205 3 28 11 68 17 90 6 22 11 58 11 79 l-1 40 19 -25 c34 -43 124 -191 179
-294 112 -212 192 -313 343 -432 31 -25 57 -49 57 -52 0 -3 10 -22 21 -41 l21
-35 25 68 c13 37 41 96 61 132 l38 65 30 -22 c37 -26 97 -102 209 -262 108
-155 194 -251 239 -266 30 -10 38 -8 87 25 51 33 55 35 67 18 40 -57 226 -303
250 -332 l29 -34 12 34 c6 19 13 56 15 82 9 100 23 93 156 -78 88 -113 118
-145 136 -145 13 0 62 20 109 45 l85 45 28 -24 c57 -51 377 -304 380 -301 10
9 29 121 31 181 1 38 4 70 5 71 1 2 29 -14 63 -33 103 -61 250 -185 345 -292
21 -23 39 -38 42 -34 7 13 27 92 32 130 17 143 38 190 90 205 24 7 39 2 88
-27 32 -19 63 -37 68 -38 19 -7 13 -358 -8 -473 -39 -220 -86 -344 -208 -545
-28 -47 -55 -93 -61 -102 -5 -9 -29 -48 -53 -87 -46 -77 -40 -73 -177 -86 -69
-6 -367 -6 -440 1 -33 2 -80 6 -105 8 -124 11 -265 43 -331 77 -20 10 -49 16
-65 14 -198 -27 -269 -50 -326 -107 -21 -21 -58 -77 -82 -125 -60 -119 -119
-179 -184 -189 -20 -3 -53 -9 -72 -14 -19 -5 -55 -12 -80 -15 -103 -14 -113
-20 -211 -128 -51 -56 -106 -115 -122 -132 l-28 -30 6 -177 c3 -97 7 -205 10
-240 4 -62 15 -327 19 -443 2 -51 -1 -63 -22 -82 -36 -34 -110 -55 -232 -68
-30 -3 -66 -7 -80 -10 -14 -2 -44 -7 -68 -10 -76 -11 -131 -42 -207 -118 -124
-125 -209 -305 -243 -517 -9 -57 -9 -269 0 -335 22 -159 90 -306 188 -405 65
-65 90 -81 251 -153 66 -30 160 -49 248 -50 207 -3 358 30 763 163 137 45 238
75 293 86 26 5 123 23 155 29 14 2 52 7 85 10 33 4 71 8 85 10 14 1 61 6 105
10 44 3 91 8 105 10 14 2 59 6 100 10 41 4 86 8 100 10 14 3 70 11 125 19 119
18 247 50 422 105 273 85 597 169 798 206 50 10 99 19 110 21 10 2 35 6 55 9
204 29 303 38 415 38 155 0 175 -4 250 -49 l70 -42 90 14 c50 7 110 16 135 19
25 3 56 8 70 10 42 8 83 14 135 20 28 4 64 8 80 10 83 11 464 3 560 -11 17 -2
125 -6 240 -10 193 -5 227 -3 331 21 11 2 56 36 99 74 42 38 85 69 94 69 9 0
129 4 266 8 296 9 843 10 900 1 22 -4 51 -9 65 -12 14 -3 77 -14 140 -25 63
-11 126 -22 140 -25 14 -3 45 -8 70 -11 25 -3 54 -8 65 -10 11 -2 67 -11 125
-19 58 -9 114 -18 125 -20 20 -4 90 -14 150 -20 17 -2 44 -6 60 -9 37 -6 196
-26 250 -31 23 -2 53 -6 68 -9 16 -3 58 -8 95 -11 37 -4 78 -8 92 -11 68 -11
198 -19 310 -19 124 0 154 3 345 30 228 32 404 35 535 10 14 -3 34 -7 45 -9
212 -43 676 -136 695 -139 14 -3 63 -12 110 -21 47 -8 99 -18 115 -21 17 -3
46 -8 65 -10 51 -8 92 -14 120 -20 14 -3 45 -8 70 -10 25 -3 52 -8 60 -10 8
-2 41 -7 73 -10 32 -4 66 -8 75 -10 16 -3 64 -9 157 -20 17 -2 73 -7 125 -11
52 -3 98 -8 101 -10 17 -10 315 -19 609 -19 l325 0 25 24 c14 13 59 49 101 81
145 112 184 186 154 299 -15 58 -7 76 50 111 44 27 45 50 10 181 -37 143 -83
274 -176 498 -81 198 -85 205 -127 232 -39 25 -163 79 -280 123 -103 39 -453
131 -612 161 -14 3 -50 10 -80 16 -30 6 -61 11 -67 12 -7 0 -13 2 -13 3 0 2
29 63 64 136 35 73 78 172 96 219 l33 87 51 -12 c61 -15 121 -45 166 -83 43
-35 104 -131 124 -191 16 -47 16 -48 58 -45 49 3 53 7 107 113 51 98 81 197
88 290 3 41 7 77 9 79 2 2 38 -2 81 -9 43 -7 90 -14 106 -17 l27 -4 1 93 c1
152 15 238 49 310 15 32 17 57 13 169 l-5 131 21 -11 c11 -7 21 -9 21 -6 0 14
108 -39 139 -68 20 -19 46 -37 59 -40 l23 -5 -1 151 c-2 163 -18 286 -45 339
-10 20 -19 68 -22 120 l-5 87 24 -6 c12 -3 32 -12 43 -20 11 -7 27 -13 37 -13
17 0 18 14 18 178 l0 178 -31 50 c-39 61 -89 115 -154 164 -50 37 -57 53 -46
111 2 11 105 57 169 76 l62 18 0 67 c0 60 -3 70 -27 93 -66 63 -139 103 -367
201 -101 44 -186 99 -233 153 -53 59 -117 195 -172 368 -74 229 -134 314 -267
377 -89 42 -164 54 -379 61 -71 2 -154 7 -183 10 -159 18 -257 103 -322 280
-21 55 -55 189 -64 247 -10 68 -48 232 -68 298 -24 76 -49 129 -91 188 -19 26
-27 46 -21 51 5 5 164 71 354 145 190 75 359 143 375 151 17 8 54 23 83 35 79
30 233 108 272 138 272 207 550 736 615 1172 4 25 9 61 12 80 3 19 7 118 8
220 4 280 -26 426 -155 775 -84 226 -134 393 -145 490 -2 17 -6 46 -9 65 -5
28 -11 91 -15 163 -1 14 -187 -3 -269 -24 -91 -23 -142 -52 -202 -113 -25 -25
-48 -46 -52 -46 -20 0 -300 144 -452 232 l-68 40 -39 -17 c-34 -16 -39 -22
-40 -54 -1 -20 -1 -39 0 -43 3 -18 -33 -6 -85 27 -30 19 -63 35 -74 35 -20 0
-22 6 -23 60 -1 23 4 26 82 41 80 17 115 22 251 35 36 4 76 8 90 9 14 2 60 3
102 4 l78 1 -7 33 c-3 17 -14 48 -24 68 -17 34 -17 37 0 65 25 40 97 106 151
140 25 15 113 61 195 102 171 85 264 143 315 195 26 27 43 37 67 37 50 0 48
17 -4 44 -75 39 -77 41 -61 57 174 182 323 406 365 549 41 141 13 346 -57 425
-10 11 -20 31 -22 45 -3 22 -7 18 -30 -30 -15 -30 -36 -79 -47 -108 -82 -208
-162 -254 -506 -290 -90 -9 -600 -8 -685 1 -36 4 -87 10 -115 13 -194 19 -358
58 -423 100 -21 14 -21 17 -8 42 19 36 95 108 181 172 50 37 71 58 72 76 2 24
0 24 -80 25 -45 0 -104 2 -132 4 -27 3 -127 6 -221 9 -212 5 -315 -14 -408
-78 -18 -12 -50 -20 -89 -22 l-60 -3 24 27 c13 15 39 44 59 65 19 21 35 49 35
62 1 23 0 24 -93 22 -51 -1 -94 -3 -95 -3z m-637 -211 c0 -12 -59 -118 -103
-183 -60 -91 -107 -149 -169 -212 -43 -44 -48 -53 -48 -94 l0 -46 38 27 c43
32 84 74 168 171 236 273 338 347 457 329 28 -4 70 -9 92 -10 21 -1 41 -7 42
-12 5 -15 -41 -116 -76 -165 -52 -75 -206 -228 -228 -228 -16 0 -20 -5 -16
-20 3 -11 9 -20 13 -20 28 0 207 88 360 175 253 146 352 190 529 235 l79 20
43 -40 c27 -24 40 -43 34 -48 -6 -5 -71 -51 -145 -102 -145 -100 -269 -193
-310 -231 -61 -57 -94 -80 -106 -75 -10 4 -14 -3 -14 -21 0 -28 -5 -27 95 -8
264 51 377 71 450 80 28 4 57 8 65 10 8 2 42 7 75 10 33 4 76 8 95 11 158 18
380 23 490 10 139 -15 313 -64 358 -99 7 -5 36 -9 65 -8 75 2 220 8 397 16
273 13 250 14 250 -9 -1 -14 -23 -37 -68 -69 -37 -26 -105 -76 -151 -112 -99
-74 -184 -118 -261 -134 -30 -6 -66 -14 -80 -16 -55 -12 -327 -5 -410 10 -14
2 -54 7 -90 11 -36 3 -73 8 -84 10 -30 6 -176 7 -182 2 -3 -3 21 -23 53 -44
100 -66 329 -133 549 -159 33 -4 67 -9 77 -11 10 -2 45 -4 78 -5 33 -1 62 -6
65 -10 7 -11 -61 -84 -99 -108 -184 -111 -568 -110 -792 1 -57 28 -65 29 -158
25 -53 -2 -100 -7 -103 -10 -10 -9 62 -75 129 -118 33 -21 114 -67 181 -100
67 -34 124 -66 127 -71 3 -4 5 -23 5 -41 l-1 -32 -150 1 c-192 1 -443 13 -555
28 -301 39 -567 139 -705 267 -30 27 -50 30 -153 20 -22 -2 23 -75 90 -146 74
-79 191 -159 324 -221 54 -25 108 -50 119 -55 11 -5 83 -31 159 -58 116 -40
140 -52 143 -70 3 -19 -2 -21 -50 -21 -28 0 -97 -4 -152 -8 -133 -9 -454 -9
-535 1 -180 22 -303 83 -457 227 -151 141 -208 184 -283 218 -60 27 -90 36
-153 48 l-38 7 3 -63 3 -63 121 -62 c67 -35 155 -84 195 -110 41 -27 110 -71
154 -100 143 -93 359 -205 394 -205 6 0 15 -10 22 -21 16 -31 6 -36 -126 -55
-32 -5 -187 -4 -223 1 -133 19 -306 96 -442 198 -47 35 -155 126 -240 201
l-155 137 -50 -2 c-88 -3 -90 -5 -53 -52 48 -62 139 -148 210 -201 126 -93
125 -92 123 -125 -1 -17 -4 -33 -7 -36 -10 -10 -140 16 -233 47 -177 59 -398
181 -633 351 -109 79 -124 81 -274 43 -174 -44 -238 -87 -451 -302 l-138 -139
5 -135 c2 -74 7 -142 10 -150 3 -8 7 -29 9 -46 9 -60 86 -202 144 -265 158
-170 423 -285 755 -326 82 -10 416 -10 493 0 158 21 359 79 470 135 122 61
252 172 295 251 11 22 16 23 73 17 43 -5 77 -16 112 -38 49 -30 82 -34 213
-25 6 0 12 10 12 23 0 15 -10 27 -33 37 -89 43 -155 115 -142 156 11 37 47 44
187 39 104 -5 146 -11 193 -28 33 -13 65 -27 71 -31 6 -5 33 -8 59 -7 l47 1
-69 66 c-64 61 -70 70 -69 106 l1 40 102 -2 c175 -3 281 -43 376 -140 48 -50
55 -53 94 -51 l42 2 -37 69 c-20 38 -51 86 -69 107 -22 25 -33 50 -35 76 l-3
39 86 -1 c183 -2 308 -68 404 -213 30 -45 46 -61 63 -61 21 0 23 3 17 33 -4
17 -18 64 -32 102 -26 71 -63 194 -63 206 0 10 92 0 168 -17 107 -24 190 -76
282 -179 71 -79 152 -158 187 -183 l32 -22 10 52 c17 84 19 108 20 186 l1 72
45 0 c25 0 45 -3 45 -7 0 -5 39 -51 86 -103 47 -52 102 -120 123 -150 42 -61
86 -163 96 -225 4 -22 8 -47 10 -55 2 -8 4 -23 4 -32 1 -12 9 -18 26 -18 14 0
25 2 25 5 0 5 85 342 100 397 9 31 14 36 33 32 12 -2 37 -7 55 -10 40 -8 90
-63 177 -194 77 -117 101 -161 150 -274 55 -130 94 -270 111 -401 3 -22 7 -51
10 -65 6 -34 5 -257 -1 -300 -5 -35 -28 -170 -30 -180 -1 -3 -5 -21 -9 -40
-19 -88 -73 -235 -126 -346 -225 -465 -633 -806 -1135 -947 -80 -22 -114 -30
-190 -42 -113 -19 -255 -29 -256 -18 0 4 -2 34 -5 66 l-5 57 48 1 c26 0 57 2
68 4 11 2 45 7 75 10 45 5 167 30 240 50 120 31 287 129 390 227 47 44 159
179 253 304 41 56 93 122 115 147 36 41 39 49 35 89 -3 24 -6 44 -7 46 -7 7
-108 -104 -166 -183 -91 -121 -113 -144 -195 -200 -137 -93 -383 -198 -540
-229 -16 -4 -41 -9 -55 -12 -14 -3 -45 -7 -70 -10 -25 -3 -51 -7 -58 -9 -50
-17 -631 -26 -854 -13 -66 4 -67 4 -50 -15 24 -27 305 -231 360 -262 34 -19
157 -109 227 -165 186 -151 337 -363 373 -525 18 -79 25 -127 37 -280 3 -38 8
-92 12 -120 4 -27 6 -53 5 -57 -5 -21 32 -161 58 -218 16 -36 34 -84 40 -107
15 -60 64 -119 147 -178 40 -28 81 -61 92 -74 18 -21 25 -23 68 -15 26 4 50 8
53 9 3 0 23 4 45 9 22 4 78 18 125 32 102 29 239 54 296 54 35 0 54 -11 160
-91 65 -50 125 -97 133 -104 12 -11 18 -34 37 -135 3 -14 7 -32 9 -40 2 -8 7
-31 10 -50 15 -90 54 -217 93 -300 62 -134 198 -236 362 -271 28 -6 50 -15 50
-20 0 -20 -78 -85 -115 -96 -22 -7 -83 -13 -136 -14 -53 -1 -113 -7 -134 -15
-36 -12 -84 -49 -74 -57 2 -2 48 -18 101 -35 198 -63 368 -153 547 -287 68
-52 100 -82 103 -99 l5 -26 -124 5 c-143 5 -270 32 -352 76 -107 57 -120 32
-28 -56 60 -58 191 -133 260 -150 15 -4 27 -8 27 -9 0 -2 14 -43 31 -92 29
-79 32 -100 30 -189 -1 -54 -4 -101 -5 -103 -2 -2 -24 2 -47 8 -81 20 -225
100 -340 187 -135 102 -206 153 -215 153 -4 0 -18 12 -31 27 l-25 28 5 -52 c7
-86 53 -165 166 -283 196 -205 277 -367 296 -595 4 -39 8 -76 11 -84 3 -10 -4
-12 -33 -6 -132 24 -248 89 -359 200 -68 67 -90 98 -128 177 -27 54 -52 123
-58 159 -6 35 -15 68 -19 73 -17 19 -80 7 -105 -19 -22 -24 -23 -26 -8 -77 34
-119 71 -201 132 -293 45 -68 193 -223 279 -295 l42 -35 7 -160 c3 -88 7 -163
7 -166 8 -31 -208 49 -296 110 -135 94 -221 236 -241 403 -7 52 -10 59 -34 65
-15 3 -36 12 -47 19 -19 12 -88 15 -99 3 -6 -6 17 -83 69 -223 45 -124 50
-191 20 -295 -52 -181 -130 -320 -233 -418 -68 -65 -124 -88 -207 -88 -60 0
-81 5 -146 37 -140 67 -171 115 -150 227 18 97 22 115 30 146 14 52 5 176 -18
235 -13 34 -42 78 -76 115 -31 33 -68 77 -83 99 l-26 38 29 24 c17 13 33 24
38 24 4 0 24 10 45 23 20 13 85 49 143 80 59 31 121 65 138 74 l31 18 -6 115
c-3 63 -6 141 -7 173 -1 81 -17 58 -52 -73 -40 -149 -57 -176 -111 -185 -24
-3 -46 -6 -49 -6 -2 0 -19 -5 -37 -10 -18 -5 -49 -12 -68 -15 -58 -9 -98 -33
-151 -92 -55 -60 -205 -263 -222 -301 -11 -22 -15 -23 -77 -17 -36 3 -78 7
-95 10 -16 2 -46 6 -65 8 -30 2 -39 10 -62 49 -23 40 -28 61 -32 151 l-6 104
123 24 c308 59 430 142 562 385 21 39 55 97 77 131 36 57 38 65 34 120 -2 32
-4 62 -5 66 -1 6 -42 2 -45 -4 -99 -206 -238 -362 -421 -475 -60 -37 -233
-133 -239 -133 -10 0 -162 -94 -212 -131 -63 -47 -164 -144 -190 -184 -17 -27
-20 -27 -82 -22 -109 11 -185 58 -273 170 -14 19 -28 27 -40 24 -28 -7 -24 15
17 99 34 71 37 73 87 88 58 17 218 51 287 62 25 3 54 8 65 10 96 18 329 23
428 9 l77 -11 30 64 c16 35 55 102 87 150 32 48 60 92 63 97 3 6 21 35 40 65
45 70 85 153 101 210 15 54 12 39 38 188 33 187 60 264 116 330 16 19 32 28
43 25 10 -2 24 3 31 11 9 10 30 16 57 16 l43 0 -17 40 c-58 136 -265 291 -647
483 -135 68 -425 207 -431 207 -8 0 -310 143 -428 201 -284 143 -383 242 -489
489 -32 77 -100 285 -111 342 -12 62 -90 368 -117 459 -72 243 -120 330 -245
449 -43 41 -118 114 -166 161 l-87 86 -88 7 c-157 13 -437 16 -493 5 -56 -10
-152 -49 -180 -73 -8 -7 -33 -14 -55 -15 -22 -2 -43 -5 -46 -7 -6 -3 -15 -56
-25 -149 -8 -66 -8 -184 -1 -191 9 -9 201 21 323 51 121 29 257 52 341 59 l63
4 143 -123 c144 -124 226 -209 285 -297 35 -51 112 -205 112 -223 0 -7 11 -25
25 -41 l25 -29 -42 -12 c-91 -27 -155 -29 -633 -22 -248 4 -363 -14 -480 -74
-46 -23 -102 -38 -120 -31 -8 4 -11 22 -9 57 1 29 5 106 9 172 4 66 8 139 10
163 l3 43 -66 -3 -66 -4 -2 -59 c-5 -192 -45 -327 -149 -503 -5 -9 -25 -44
-44 -77 -19 -33 -35 -61 -36 -63 -4 -5 -255 -13 -255 -8 0 8 51 148 70 191
132 306 161 418 156 608 -3 101 -5 110 -29 134 l-25 26 -34 -20 c-40 -23 -92
-106 -117 -188 -10 -33 -40 -153 -65 -266 -67 -298 -108 -406 -196 -517 -42
-54 -192 -162 -224 -162 -20 0 -46 23 -46 41 0 20 306 843 332 892 14 27 1 69
-42 137 -39 58 -41 60 -84 60 -38 0 -45 -3 -54 -27 -9 -24 -44 -129 -47 -143
-1 -3 -4 -12 -7 -20 -4 -8 -43 -127 -87 -265 -45 -137 -91 -271 -102 -296
l-20 -46 -57 13 c-80 19 -151 55 -152 77 0 35 52 152 102 227 54 81 53 76 43
240 -1 30 -4 92 -5 138 l-3 82 -44 0 c-42 0 -44 -2 -62 -42 -25 -58 -102 -287
-107 -318 -3 -14 -7 -32 -10 -40 -15 -39 -32 -183 -30 -250 5 -140 39 -199
186 -321 175 -145 198 -225 141 -479 -33 -150 -43 -211 -44 -280 l0 -46 -36 3
c-52 3 -101 13 -120 23 -9 5 -38 19 -66 30 -27 12 -78 40 -112 62 l-62 41 5
61 c7 93 11 106 44 158 l30 49 -21 62 c-29 86 -144 267 -170 267 -4 0 -18 -28
-32 -62 -41 -100 -46 -123 -52 -238 -6 -118 -14 -158 -40 -211 -26 -51 -98
-127 -155 -165 l-38 -25 3 -82 c2 -45 4 -86 4 -90 1 -12 107 47 168 92 l52 40
68 -34 c37 -19 82 -46 99 -62 32 -29 104 -116 104 -126 0 -8 141 -240 158
-260 9 -10 17 -27 19 -39 3 -19 0 -20 -54 -14 -139 15 -264 47 -362 93 -73 34
-178 103 -215 142 -24 25 -38 31 -74 31 -40 0 -43 -2 -37 -22 45 -147 200
-298 354 -344 l46 -13 23 -123 c12 -68 25 -135 27 -150 l5 -26 -127 3 c-208 6
-320 53 -392 165 -21 33 -42 71 -45 85 -8 33 -15 32 -64 -10 -52 -45 -88 -121
-99 -210 -13 -111 -13 -111 61 -107 l64 3 180 -123 c142 -96 182 -129 187
-150 3 -15 13 -32 21 -39 19 -16 17 -100 -4 -149 -8 -19 -14 -45 -13 -57 0
-13 -4 -23 -10 -23 -21 0 -208 75 -294 118 -49 24 -123 67 -163 94 -72 49
-192 160 -192 179 0 14 -88 11 -92 -3 -6 -17 32 -113 64 -163 37 -59 109 -126
211 -197 140 -99 129 -84 128 -165 -1 -81 -23 -149 -51 -156 -44 -11 -241 83
-435 209 -33 21 -68 43 -77 49 -10 5 -53 33 -97 62 -89 57 -88 58 -97 -33 -10
-87 7 -118 90 -171 125 -79 135 -92 190 -248 19 -54 42 -105 49 -114 8 -9 17
-35 19 -58 4 -52 4 -52 -111 -17 -171 52 -303 135 -384 240 -40 52 -44 54 -84
52 -41 -2 -42 -2 -36 -32 11 -65 45 -156 73 -195 32 -44 105 -105 163 -136 34
-18 37 -23 38 -65 1 -25 2 -61 4 -80 2 -19 1 -38 -1 -41 -5 -9 -209 28 -280
51 -66 22 -132 64 -175 112 -24 26 -69 39 -69 20 0 -4 8 -46 18 -93 17 -74 17
-89 5 -124 -8 -22 -13 -51 -12 -65 3 -61 2 -62 -76 -14 -58 34 -62 35 -145 32
l-85 -4 -6 -39 c-4 -22 -9 -63 -13 -92 -10 -85 -11 -85 -75 -78 -67 8 -75 14
-96 70 -17 43 -18 43 -49 33 -17 -6 -50 -25 -74 -41 -40 -29 -60 -55 -141
-184 -73 -117 -188 -173 -401 -198 -30 -3 -66 -8 -80 -10 -14 -2 -47 -6 -75
-10 -151 -18 -253 -48 -314 -93 -27 -20 -46 -25 -100 -26 -84 -2 -169 11 -199
30 -37 24 -42 54 -27 143 36 203 -24 354 -174 436 -50 28 -79 90 -87 190 -4
44 -8 81 -9 83 -1 2 -17 -9 -34 -24 -41 -34 -109 -130 -157 -219 -76 -145
-134 -242 -154 -260 -11 -10 -20 -29 -20 -43 0 -21 -3 -23 -27 -17 -16 3 -55
21 -87 38 -66 35 -65 34 -106 204 -20 78 -20 85 -4 150 22 90 49 136 123 207
34 32 74 74 90 93 l28 34 154 0 c85 -1 165 -3 179 -5 14 -3 52 -7 85 -10 251
-26 444 -81 575 -164 48 -31 59 -34 105 -29 124 14 340 108 471 206 84 62 189
168 220 220 16 27 32 36 57 32 4 0 7 10 7 24 0 22 -3 24 -32 19 -42 -8 -88
-27 -88 -36 0 -5 -21 -8 -46 -8 l-47 0 7 38 c9 59 43 135 120 267 106 182 108
188 101 373 -3 86 -8 186 -10 222 -3 51 4 89 31 182 76 265 213 534 489 958
182 280 212 339 279 555 65 206 125 302 235 377 25 18 52 40 59 50 7 10 17 18
22 18 5 0 33 -51 63 -112 30 -62 71 -137 90 -166 25 -36 37 -67 39 -95 3 -42
3 -42 43 -42 40 0 40 1 38 37 -1 21 -11 54 -21 75 -21 42 -20 113 1 218 l12
60 65 -3 c124 -6 201 -41 262 -119 29 -37 40 -32 56 27 7 28 5 43 -11 74 -10
22 -21 59 -23 82 l-4 42 42 -10 c162 -35 256 -158 277 -361 1 -4 21 -6 46 -5
l44 3 -5 40 c-20 137 -74 268 -149 360 -62 76 -92 104 -240 223 -241 194 -314
287 -376 482 l-27 85 -7 -40 c-4 -22 -9 -47 -10 -55 -3 -13 5 -72 18 -140 3
-14 12 -52 20 -85 18 -68 24 -149 13 -182 -4 -12 -9 -51 -10 -86 -4 -69 -20
-109 -59 -146 -23 -21 -29 -22 -60 -12 -42 14 -109 70 -136 114 -21 35 -47
124 -55 192 -16 132 -37 218 -67 278 -12 23 -24 55 -28 72 l-7 29 -29 -38
c-47 -62 -54 -109 -49 -317 4 -138 2 -196 -8 -225 -7 -21 -13 -58 -13 -82 l1
-42 -36 6 c-19 3 -48 10 -63 16 -70 27 -93 176 -52 339 6 24 4 24 -37 21 -57
-5 -88 -34 -83 -76 2 -17 6 -60 10 -96 3 -36 8 -81 10 -100 2 -19 6 -62 10
-95 3 -33 7 -80 10 -105 6 -55 14 -137 21 -210 2 -30 7 -74 10 -97 3 -31 1
-43 -8 -44 -7 -1 -45 -3 -85 -5 l-72 -4 -10 37 c-24 97 -49 291 -56 431 -2 37
-4 73 -4 80 -2 20 -46 14 -68 -10 -18 -21 -20 -35 -18 -158 2 -132 11 -273 20
-321 3 -13 8 -40 11 -59 8 -44 50 -139 71 -162 22 -24 11 -105 -29 -222 -17
-50 -32 -93 -34 -94 -1 -2 -20 -5 -42 -7 l-40 -3 -16 51 c-19 63 -43 168 -51
222 -3 22 -7 49 -10 60 -19 91 -28 520 -13 655 12 109 38 232 59 273 11 21 19
48 17 60 -2 18 -10 22 -41 22 -21 0 -42 -2 -47 -5 -11 -7 -56 -174 -65 -240
-4 -25 -10 -63 -15 -85 -5 -22 -12 -71 -15 -110 -4 -38 -9 -72 -10 -75 -17
-28 -26 -531 -13 -670 13 -134 37 -230 75 -302 23 -42 25 -55 20 -122 -3 -41
-11 -87 -19 -102 -12 -26 -70 -74 -89 -74 -13 0 -81 146 -94 202 -12 57 -9 55
-92 49 -6 -1 -12 -9 -12 -18 -10 -226 -1 -308 48 -484 27 -96 27 -102 -1 -94
-82 24 -138 74 -188 167 -17 31 -47 81 -66 110 l-36 53 6 145 c3 80 8 159 11
175 28 155 40 208 65 286 17 51 46 122 66 159 28 54 35 77 33 116 -4 89 -7 89
-117 7 -40 -30 -79 -56 -86 -59 -13 -5 -24 -50 -41 -169 -4 -22 -8 -51 -11
-65 -11 -66 -19 -253 -18 -417 l1 -182 -59 51 c-32 28 -80 78 -105 112 -25 34
-59 75 -75 92 -28 30 -29 36 -29 115 1 46 3 95 5 109 2 14 7 48 10 75 18 159
93 323 237 515 203 272 240 336 289 505 17 60 45 135 61 167 21 42 28 69 26
96 -4 35 -6 37 -40 38 -19 1 -40 -2 -45 -5 -5 -3 -30 -48 -56 -100 -45 -92
-146 -264 -308 -526 -173 -280 -284 -546 -304 -730 -3 -22 -7 -49 -9 -60 -2
-11 -4 -26 -4 -32 -1 -7 -10 -13 -21 -13 -55 0 -84 232 -51 400 57 280 234
643 441 901 51 63 51 64 48 128 -3 56 -6 64 -24 67 -17 3 -23 -5 -34 -39 -55
-185 -276 -484 -607 -824 -83 -85 -108 -104 -149 -116 -27 -8 -50 -13 -52 -12
-8 7 23 108 50 160 42 82 95 151 202 262 159 165 182 204 311 514 111 265 187
412 263 508 11 14 18 32 17 40 -2 9 -4 19 -4 22 -1 4 -11 5 -23 4 -13 -1 -32
-3 -44 -4 -17 -1 -24 -15 -43 -81 -28 -96 -109 -259 -181 -366 -45 -67 -191
-258 -210 -274 -17 -15 -260 -312 -287 -350 -19 -28 -39 -46 -52 -47 -18 -2
-21 4 -22 45 0 26 -3 93 -5 149 l-5 102 110 144 c123 161 218 255 292 288 27
13 49 26 50 31 1 10 1 48 0 94 l-1 36 -58 -32 c-146 -82 -295 -212 -384 -334
-78 -107 -98 -119 -98 -59 0 91 63 261 144 387 31 47 164 214 210 262 29 30
205 222 236 257 116 131 229 307 279 435 l21 52 -23 0 c-12 0 -33 9 -46 19
l-25 19 -73 -126 c-151 -258 -224 -327 -455 -422 -57 -23 -112 -46 -123 -51
-154 -63 -225 -86 -225 -71 0 9 -10 26 -22 39 -17 18 -18 23 -6 23 9 0 29 27
47 65 65 132 174 220 449 361 l152 79 0 47 c0 45 -1 47 -28 42 -57 -10 -90
-26 -122 -59 -23 -24 -42 -35 -59 -34 -15 1 -97 -2 -183 -6 -99 -4 -158 -3
-158 3 0 29 148 140 303 226 l67 38 -2 44 c-3 49 -12 50 -73 14 -25 -16 -62
-20 -218 -25 l-187 -7 0 44 c0 50 -29 35 285 144 312 109 422 157 533 233 100
69 130 102 143 158 16 72 11 75 -94 47 -183 -49 -360 -129 -475 -216 l-63 -48
-112 -6 c-62 -3 -118 -7 -124 -9 -34 -11 -5 49 59 124 21 24 38 47 38 51 0 4
-21 15 -47 25 -27 10 -72 30 -102 43 l-54 25 54 34 c92 58 175 92 436 179 258
85 372 135 459 199 49 37 134 123 134 138 0 4 11 7 25 7 23 0 25 4 25 45 0 25
-4 45 -8 45 -7 0 -79 -19 -172 -45 -101 -28 -287 -117 -341 -163 -37 -32 -42
-33 -121 -33 -89 1 -109 3 -148 20 -36 15 -77 53 -63 58 38 14 249 172 368
276 36 33 38 37 26 59 -13 25 -62 64 -179 143 -69 47 -75 53 -78 90 -3 30 2
45 18 62 19 21 28 23 77 18 62 -7 130 -26 184 -54 38 -19 76 -20 240 -6 61 5
130 23 160 42 7 4 17 8 22 9 6 0 16 2 23 2 6 1 12 12 12 23 0 21 -2 21 -126
16 -146 -6 -142 -9 -138 102 15 347 65 538 244 919 53 113 53 113 84 107 152
-31 249 -96 383 -258 37 -45 91 -108 121 -140 31 -33 52 -63 49 -71 -3 -8 3
-16 14 -19 27 -7 32 9 26 85 -12 164 -52 254 -157 358 l-75 75 -5 95 c-3 52
-5 97 -4 98 2 2 27 -14 56 -36 142 -105 254 -265 295 -424 12 -45 23 -68 34
-71 10 -3 20 -3 23 0 10 10 -6 156 -24 230 -25 94 -53 144 -119 206 l-50 48 1
109 c1 152 21 260 60 333 10 20 11 20 24 -4 7 -13 31 -78 54 -144 46 -136 105
-239 131 -225 24 14 68 19 74 10 3 -5 22 -67 41 -137 19 -70 51 -164 70 -208
20 -44 36 -88 36 -97 -1 -13 7 -18 24 -18 26 0 26 0 19 67 -3 37 -15 88 -27
113 -39 88 -27 371 22 503 l21 57 44 0 c27 0 51 -7 65 -18 22 -18 23 -24 22
-163 -1 -138 -3 -156 -19 -224 -6 -28 -6 -67 1 -195 2 -30 4 -92 5 -137 1 -81
2 -83 26 -83 27 0 38 29 60 155 3 17 8 37 10 45 2 8 7 37 10 65 3 27 7 57 9
65 3 8 7 32 10 52 3 21 10 57 15 80 6 24 12 54 14 68 13 68 61 180 101 235 12
17 22 37 21 45 -1 21 14 30 52 30 24 0 32 -4 32 -17 0 -10 0 -108 0 -218 0
-110 -1 -216 -4 -235 -2 -19 -7 -55 -10 -80 -12 -95 -30 -158 -76 -267 -20
-50 0 -60 40 -21 62 60 69 88 72 254 2 151 19 218 71 275 138 151 127 143 194
147 74 5 70 13 72 -160 1 -91 -3 -142 -14 -175 -11 -33 -15 -82 -14 -153 1
-101 7 -119 35 -120 19 0 45 98 60 225 10 80 16 123 39 255 8 48 28 115 45
150 11 22 16 50 14 78 l-4 42 60 1 c34 1 71 2 84 3 30 2 34 -12 31 -123 -7
-259 -43 -388 -186 -681 -50 -102 -97 -200 -104 -217 -14 -33 -14 -33 14 -33
15 0 33 -5 38 -10 6 -6 24 -14 41 -19 30 -9 30 -9 48 53 28 96 104 294 143
371 63 127 149 237 232 298 67 49 265 144 328 157 58 12 64 11 83 -6 17 -15
20 -27 15 -61 -17 -126 -137 -265 -353 -407 -134 -88 -144 -99 -135 -153 3
-13 9 -23 14 -23 20 0 196 91 263 136 67 45 74 47 153 51 45 3 82 1 82 -4 0
-22 -75 -149 -146 -249 -43 -61 -83 -119 -89 -128 -15 -24 -205 -59 -388 -72
-75 -5 -96 -10 -115 -28 l-22 -22 22 -44 c18 -35 30 -46 53 -50 83 -15 307 34
411 89 54 28 55 28 246 29 213 1 308 -11 308 -38 0 -43 -25 -146 -60 -250 -39
-114 -92 -226 -185 -390 -92 -162 -162 -307 -190 -396 -16 -49 -33 -92 -39
-96 -6 -4 -40 -6 -76 -5 -63 2 -70 5 -124 47 -101 79 -94 77 -121 49 l-24 -24
25 -70 c52 -147 133 -241 270 -312 l72 -38 -19 -42 c-16 -34 -26 -44 -57 -52
-166 -45 -246 -51 -312 -23 -31 12 -157 18 -168 7 -7 -6 34 -89 90 -182 50
-82 98 -195 98 -229 0 -24 -200 11 -284 49 -59 27 -132 88 -141 118 -9 29 -55
26 -55 -3 2 -123 109 -269 281 -382 97 -63 130 -92 164 -147 33 -52 73 -172
95 -289 16 -78 17 -97 6 -110 -7 -8 -16 -27 -20 -42 -8 -34 -47 -39 -68 -9 -7
10 -68 75 -135 144 -66 69 -142 155 -167 190 -42 59 -63 73 -82 54 -15 -15 64
-142 187 -302 93 -122 135 -194 149 -260 6 -28 12 -117 14 -200 2 -108 7 -160
19 -187 8 -20 13 -39 10 -41 -2 -3 -6 -11 -7 -19 -1 -7 -8 -32 -15 -55 l-12
-42 -47 3 c-84 7 -140 27 -186 67 -49 43 -75 97 -110 227 -26 99 -54 168 -87
213 -18 26 -25 44 -28 71 -1 5 -11 6 -23 4 -20 -2 -23 -8 -20 -37 33 -344 268
-700 686 -1037 45 -36 96 -74 114 -85 31 -18 32 -21 32 -82 0 -35 4 -65 10
-67 5 -1 36 -1 69 0 l59 4 23 55 c12 30 39 81 61 115 21 33 37 67 34 76 -3 10
-7 34 -10 55 -7 46 -32 97 -49 98 -6 0 -21 2 -32 5 -35 7 -58 -4 -115 -55
l-54 -49 -36 27 c-19 16 -60 44 -90 64 l-56 35 -2 82 -3 82 93 -6 c111 -9 219
-17 233 -19 18 -3 8 58 -19 115 -32 67 -106 145 -182 190 l-55 33 6 50 c4 28
10 65 15 83 9 33 68 134 82 140 5 2 8 10 8 18 0 12 8 14 38 9 120 -19 224 -61
389 -157 219 -129 315 -168 448 -183 67 -8 69 -1 26 89 -90 186 -318 351 -656
473 -60 22 -152 51 -202 64 l-93 24 0 42 c0 36 3 43 19 43 13 0 21 8 23 23 4
32 42 35 63 4 l16 -25 39 22 c35 18 40 26 40 56 0 48 8 56 60 65 25 4 52 9 60
11 8 1 49 10 90 19 98 22 203 25 298 9 110 -18 142 -29 288 -95 75 -34 161
-65 201 -73 70 -13 169 -15 208 -3 11 3 40 9 65 12 25 3 52 8 60 10 8 2 44 7
80 10 36 4 81 8 100 10 35 4 103 10 210 20 30 2 96 7 145 10 50 3 117 8 150
10 389 27 1196 27 1385 -1 86 -12 215 -39 340 -70 263 -65 519 -116 700 -140
307 -40 581 -11 719 75 13 8 33 17 45 18 59 9 160 47 209 80 30 21 104 85 165
143 122 118 117 109 128 275 7 97 7 134 5 278 l-1 68 -97 107 c-126 140 -139
152 -160 152 -22 0 -156 36 -318 83 -239 71 -313 82 -535 82 -205 -1 -331 -13
-565 -55 -164 -30 -185 -34 -277 -56 -10 -2 -26 -6 -36 -8 -9 -2 -37 -9 -62
-16 -25 -7 -52 -13 -60 -15 -8 -2 -51 -12 -95 -23 -44 -11 -98 -23 -120 -27
-22 -4 -49 -9 -60 -11 -182 -32 -282 -39 -580 -39 -221 0 -396 7 -505 20 -19
2 -57 7 -85 10 -27 3 -63 7 -80 10 -16 3 -48 7 -70 10 -63 9 -213 35 -287 51
-37 7 -80 16 -96 19 -60 10 -312 86 -401 120 -180 69 -285 136 -363 235 -43
54 -57 79 -161 280 -44 85 -101 186 -125 223 l-45 69 6 136 c4 76 8 146 11
157 2 11 7 40 11 65 12 72 55 200 87 260 117 213 295 333 668 450 480 151 615
201 763 284 72 40 208 138 277 200 73 65 359 354 443 447 l77 86 61 2 c59 2
61 2 54 -21 -11 -37 -90 -180 -137 -249 -76 -110 -218 -242 -315 -292 -28 -15
-31 -21 -29 -57 2 -22 5 -43 8 -46 3 -3 37 10 75 29 159 81 359 262 563 512
36 44 75 91 87 105 76 89 62 83 216 86 31 1 57 0 57 -3z m-1710 -1708 c212
-37 476 -137 715 -273 69 -39 202 -138 259 -193 33 -33 65 -59 70 -59 12 0 59
37 115 89 l43 41 38 -32 c21 -18 41 -39 44 -46 9 -21 -52 -137 -100 -191 -122
-136 -296 -196 -564 -196 -181 0 -295 15 -525 70 -114 27 -405 132 -437 158
-18 14 -84 166 -94 217 -14 66 -5 143 22 210 36 84 56 114 121 177 l54 51 75
-4 c41 -2 115 -11 164 -19z m-8568 -434 c4 -1 22 -17 40 -37 44 -48 166 -146
253 -203 l70 -46 0 -58 c0 -60 -10 -76 -64 -107 -13 -7 -14 -12 -1 -34 16 -31
79 -94 169 -168 48 -39 73 -71 100 -122 33 -63 36 -76 38 -162 1 -60 -3 -113
-13 -146 -22 -78 -79 -193 -128 -262 -55 -77 -169 -191 -220 -219 l-38 -22 6
-65 c13 -120 20 -157 47 -246 58 -190 148 -308 289 -378 44 -23 201 -70 270
-82 115 -19 380 -66 404 -70 71 -13 220 -69 325 -121 68 -34 243 -142 430
-267 326 -218 444 -285 591 -334 l85 -29 0 -59 c0 -134 -27 -235 -82 -310 -25
-34 -30 -64 -10 -64 6 0 54 9 105 21 51 12 95 19 98 17 5 -6 5 -434 0 -463 -3
-11 -5 -32 -5 -47 -1 -33 -26 -59 -49 -51 -32 11 -139 88 -207 148 -58 51 -73
60 -107 60 -22 1 -41 -2 -43 -6 -9 -14 27 -127 62 -194 20 -38 74 -125 120
-193 93 -137 133 -212 156 -288 19 -64 20 -205 2 -283 -8 -32 -16 -69 -19 -82
-3 -13 -10 -44 -17 -69 -6 -25 -12 -52 -14 -60 -16 -74 -24 -102 -29 -107 -9
-9 -119 63 -172 114 -75 70 -106 139 -106 236 0 53 12 190 18 199 2 3 7 63 10
131 l7 125 -62 -3 c-35 -2 -65 -5 -67 -8 -3 -2 -7 -63 -9 -133 -7 -197 -15
-377 -18 -380 -1 -2 -30 -5 -64 -7 l-60 -5 -11 37 c-33 109 -65 254 -77 341
-3 25 -8 56 -10 70 -2 14 -6 63 -10 110 -13 184 -16 214 -20 218 -15 15 -81
-141 -104 -249 -11 -48 -12 -57 -32 -222 -11 -91 -14 -98 -33 -95 -16 2 -35
32 -78 116 -103 206 -190 459 -220 642 l-14 85 -67 2 -68 2 6 -155 6 -155 -43
-46 c-24 -25 -53 -56 -65 -68 -46 -48 -71 -40 -229 74 -122 87 -176 266 -199
657 -4 56 -8 110 -10 120 -2 11 -4 30 -4 44 -1 19 -9 28 -33 36 -18 6 -40 14
-49 18 -14 6 -28 -16 -77 -111 -33 -65 -77 -164 -97 -221 l-38 -102 -31 5
c-17 3 -65 11 -106 18 l-75 13 -13 49 c-29 116 -43 227 -42 335 0 114 2 138
15 277 7 72 7 73 -22 100 -175 162 -218 198 -237 195 -28 -4 -62 -38 -99 -99
-31 -52 -33 -53 -79 -53 -44 0 -47 2 -53 30 -8 38 2 99 28 169 17 48 18 59 7
90 -13 38 -59 108 -96 151 -53 60 -69 78 -109 130 -49 64 -89 152 -103 227
l-9 52 31 -6 c17 -3 67 -21 111 -40 116 -50 221 -78 244 -64 6 4 15 28 20 54
4 26 13 53 19 60 8 9 10 46 6 108 -3 52 -7 119 -9 149 -4 72 -3 70 -16 70 -6
0 -27 7 -46 16 -30 15 -43 15 -101 5 -92 -16 -139 -45 -187 -115 l-40 -58 -45
7 c-25 3 -74 20 -108 37 l-64 31 6 76 c4 42 9 117 12 166 8 155 4 147 92 188
153 72 282 87 464 52 54 -10 100 -17 102 -14 2 2 7 33 11 68 7 75 32 128 74
164 29 24 31 30 30 91 -1 73 -6 77 -57 46 -39 -24 -77 -25 -152 -4 -38 11 -56
21 -57 32 -5 96 -4 247 2 287 8 53 56 154 86 181 20 18 55 20 143 9 l60 -8
-23 31 c-28 41 -54 58 -112 77 -44 15 -48 19 -54 58 -4 23 -9 51 -11 62 -2 11
-7 40 -10 65 -3 25 -7 52 -9 60 -2 8 -7 35 -10 60 -3 25 -8 57 -11 72 -3 23 0
27 23 30 24 2 65 2 95 -1z m-506 -338 c33 -21 44 -51 31 -80 -13 -29 -18 -29
-52 5 -29 28 -55 79 -55 108 0 18 -7 21 76 -33z m7643 -35 c41 -40 134 -147
206 -238 138 -173 233 -272 324 -339 157 -117 408 -204 740 -258 25 -4 48 -8
51 -8 3 -1 32 -5 65 -9 33 -5 69 -10 80 -12 11 -2 67 -8 125 -14 58 -6 125
-13 150 -15 52 -6 176 -14 305 -20 111 -5 568 -6 650 0 191 12 304 21 365 30
14 2 61 9 105 15 138 19 263 48 500 115 274 78 290 82 435 108 300 54 472 34
715 -85 245 -119 373 -278 359 -443 -5 -66 -58 -175 -107 -223 -178 -174 -606
-273 -1020 -239 -114 10 -185 28 -447 117 -279 94 -323 103 -595 135 -244 28
-724 24 -1285 -9 -436 -26 -1023 -27 -1155 -2 -11 2 -45 7 -75 10 -53 6 -178
28 -230 40 -14 4 -38 9 -55 13 -16 3 -147 7 -290 8 -257 1 -288 4 -349 29 -17
7 -48 12 -68 11 -21 -1 -38 2 -38 7 0 16 48 83 95 133 26 28 60 67 77 88 l30
37 -39 16 c-21 8 -65 28 -98 43 -33 15 -75 34 -92 42 -18 7 -33 20 -33 27 0
20 102 116 168 159 74 48 235 128 290 144 26 8 41 17 38 25 -2 6 -10 31 -17
54 -14 45 -58 89 -92 92 -12 1 -29 2 -37 4 -8 1 -38 2 -67 3 l-52 1 15 37 c20
47 73 130 107 165 65 69 139 190 152 248 4 16 10 30 13 30 4 0 40 -33 81 -72z
m-8081 -192 c56 -28 61 -36 37 -60 -8 -8 -15 -25 -15 -38 0 -21 -5 -23 -41
-23 l-42 0 -23 80 c-13 44 -24 81 -24 82 -1 6 63 -18 108 -41z m623 -15 c4 -1
7 -43 9 -93 1 -51 3 -118 5 -148 2 -30 4 -84 6 -120 l2 -64 -48 3 c-26 1 -57
5 -69 7 -11 2 -35 7 -53 10 -18 3 -36 11 -41 18 -27 33 -124 371 -108 377 0 0
55 3 121 6 66 3 122 7 124 9 2 2 13 2 25 -1 12 -2 24 -4 27 -4z m-381 -162 c0
-10 13 -37 29 -60 17 -22 38 -64 48 -92 21 -62 22 -179 2 -222 -7 -16 -13 -50
-14 -75 l0 -45 -41 -3 c-39 -2 -43 0 -120 81 -90 95 -163 175 -182 198 -15 20
1 64 61 161 46 72 43 71 160 75 50 1 57 -1 57 -18z m9935 -3358 c39 -64 101
-192 196 -408 50 -114 111 -246 136 -293 92 -173 98 -179 367 -381 137 -102
252 -192 257 -201 5 -9 11 -33 14 -54 11 -72 26 -104 55 -119 55 -28 67 -21
90 51 25 83 25 113 0 167 -20 42 -109 141 -181 201 -256 214 -378 356 -436
506 -29 74 -34 103 -34 175 0 77 15 141 56 230 21 46 31 83 29 108 l-2 37 43
0 44 0 21 -57 c28 -75 46 -153 65 -288 29 -206 85 -360 158 -436 46 -49 135
-108 238 -160 201 -100 257 -142 317 -236 l33 -51 -21 -64 c-26 -77 -94 -198
-169 -298 -59 -79 -238 -265 -305 -317 -38 -29 -39 -31 -27 -61 32 -77 102
-97 220 -64 80 23 76 25 100 -48 6 -19 24 -51 41 -70 29 -34 30 -38 30 -140 0
-119 -10 -165 -44 -204 l-23 -28 -49 35 c-27 18 -74 44 -104 56 -86 35 -132
72 -166 131 -18 30 -46 77 -63 104 -21 33 -31 61 -31 87 0 35 -3 39 -24 39
-22 0 -24 -3 -19 -32 9 -61 35 -143 94 -289 95 -237 105 -323 52 -441 -16 -36
-27 -77 -26 -100 1 -21 -2 -38 -6 -38 -21 0 -105 66 -171 134 -68 70 -158 146
-174 146 -13 0 -5 -65 21 -173 31 -135 36 -264 10 -314 -10 -18 -17 -41 -17
-53 0 -21 0 -21 -31 -3 -46 27 -127 113 -186 200 l-53 76 -15 -37 c-18 -43
-52 -171 -61 -227 -3 -20 -11 -56 -19 -80 -12 -41 -15 -44 -48 -43 -52 2 -125
41 -157 86 -37 51 -51 120 -50 248 1 58 1 109 1 113 -2 18 -67 -32 -126 -95
-71 -77 -148 -189 -231 -337 l-57 -101 -76 0 c-78 0 -114 7 -191 35 -82 30
-80 38 17 69 49 16 106 37 127 47 22 11 57 19 77 19 42 0 47 7 41 56 -4 30 -7
34 -26 28 -11 -3 -28 -13 -38 -21 -9 -8 -40 -17 -70 -20 -169 -16 -283 -66
-384 -167 -58 -58 -144 -172 -144 -191 0 -3 -14 -27 -30 -53 -23 -38 -35 -49
-53 -47 -12 1 -74 6 -137 10 -63 4 -126 9 -140 10 -14 2 -38 4 -55 4 l-30 1
-1 172 c0 188 -5 228 -35 315 -19 56 -96 183 -111 183 -17 0 -6 50 26 117 39
80 31 77 196 97 35 5 93 13 140 22 118 20 152 17 285 -26 192 -63 277 -55 376
35 22 19 48 35 59 35 18 0 29 28 15 42 -3 2 -42 -3 -88 -13 -208 -46 -280 -43
-400 16 l-68 34 45 34 c42 32 185 87 261 101 154 29 281 48 313 49 19 0 15 9
-28 67 -22 29 -40 57 -40 60 0 4 62 48 138 98 250 166 286 205 307 341 15 95
73 145 165 142 25 0 57 2 73 5 26 5 27 8 27 63 0 43 -7 73 -29 117 -16 32 -34
84 -41 114 -16 71 -53 146 -93 189 -18 18 -77 64 -132 101 -140 94 -214 180
-367 425 -43 70 -228 457 -228 479 0 5 194 136 202 136 3 0 23 -39 43 -87 214
-499 359 -714 538 -803 45 -22 67 -39 67 -51 0 -9 5 -19 11 -21 19 -6 79 4 79
13 0 24 -88 192 -175 334 -165 268 -226 420 -251 620 -3 28 -7 52 -9 55 -1 3
1 15 5 26 8 19 17 22 96 23 49 1 89 3 90 4 2 1 17 3 34 3 26 1 35 -5 55 -35z
m-1184 -393 c12 -13 78 -90 146 -173 151 -181 151 -180 187 -230 17 -22 33
-42 36 -45 12 -10 240 -310 332 -435 89 -123 111 -168 110 -230 0 -87 -50
-182 -176 -335 -34 -41 -84 -104 -111 -140 -182 -239 -329 -351 -515 -390 -91
-19 -257 -17 -380 5 -173 30 -412 66 -465 69 -46 3 -125 -18 -207 -55 -48 -22
-100 -42 -115 -45 -14 -3 -30 -7 -35 -10 -4 -3 -9 5 -9 18 -1 13 -3 39 -5 58
-7 75 -7 146 0 177 11 47 47 60 178 61 61 1 112 2 113 4 2 2 -1 25 -6 51 -5
26 -11 69 -15 95 -3 26 -8 56 -10 67 -2 11 -6 34 -9 50 -11 65 -29 132 -47
173 -10 24 -18 61 -18 82 l0 37 43 -7 c23 -4 71 -10 107 -14 36 -3 75 -8 87
-10 25 -5 25 -18 8 337 l-7 137 53 -29 c42 -23 158 -56 165 -48 4 5 16 189 16
234 -1 28 -7 66 -15 85 -7 18 -15 61 -16 95 l-2 62 98 -33 c54 -19 113 -36
132 -40 l33 -6 -6 133 c-5 129 -5 135 17 154 12 11 66 35 120 52 55 17 108 38
120 46 29 20 42 19 68 -7z m-5165 -123 c63 -63 97 -151 110 -280 8 -91 8 -91
68 -34 61 57 83 101 92 184 8 64 17 72 87 74 38 1 47 -2 48 -16 4 -52 -7 -208
-16 -243 -2 -8 -7 -30 -10 -49 -3 -19 -10 -42 -16 -52 -5 -11 -8 -19 -5 -19
10 0 -57 -148 -98 -215 -31 -51 -42 -79 -41 -105 3 -49 -21 -56 -61 -17 -17
17 -48 36 -68 41 -34 10 -41 18 -62 71 -13 32 -35 71 -49 85 -22 23 -25 36
-30 140 -13 301 -16 369 -19 423 -4 72 8 74 70 12z m7886 -339 c156 -82 238
-127 308 -166 224 -126 399 -216 499 -256 39 -15 39 -15 55 -102 9 -48 18 -96
20 -107 6 -33 15 -125 22 -221 l6 -91 -67 -89 c-37 -49 -85 -119 -106 -155
-38 -64 -108 -223 -109 -246 0 -6 -26 -14 -62 -18 -35 -4 -70 -9 -78 -10 -8
-2 -53 -6 -100 -10 -47 -3 -97 -8 -111 -10 -14 -3 -41 -7 -60 -10 -19 -2 -58
-8 -86 -13 -66 -11 -67 -3 -17 76 63 97 125 173 227 274 l97 97 -57 29 c-32
16 -91 42 -132 58 -64 24 -76 33 -89 64 -38 90 -68 223 -97 425 -5 36 -14 88
-31 180 -15 89 -83 291 -107 323 -16 21 7 14 75 -22z m-7182 -181 c10 -22 30
-49 45 -59 27 -18 27 -18 20 -105 -3 -47 -8 -99 -11 -116 -2 -16 -5 -45 -6
-62 0 -18 -3 -33 -6 -33 -3 0 -29 20 -58 45 -77 66 -106 119 -120 222 -9 71
-10 143 -2 145 5 2 34 4 64 4 l56 1 18 -42z m7120 -704 c37 -68 85 -121 149
-162 26 -17 46 -38 48 -50 3 -21 1 -21 -114 -17 -85 4 -135 11 -177 26 -103
37 -102 35 -105 154 l-2 103 85 3 85 3 31 -60z m-3405 -804 c11 -3 40 -8 65
-12 56 -9 78 -13 110 -20 14 -3 43 -8 64 -10 22 -3 42 -7 44 -10 9 -8 -51 -89
-101 -137 -27 -25 -101 -81 -165 -124 -63 -43 -143 -103 -176 -134 l-61 -57
-62 19 c-60 18 -62 19 -92 81 -16 34 -38 74 -47 88 -16 25 -16 28 6 75 30 62
91 122 172 167 35 20 79 47 98 62 35 25 67 28 145 12z m-557 -110 c10 -12 22
-39 25 -60 6 -40 7 -40 -80 -118 -97 -89 -266 -171 -307 -150 -12 6 -34 15
-50 21 -18 7 -26 15 -23 24 3 8 20 66 37 129 l32 115 66 12 c37 6 73 17 81 23
13 11 72 20 157 24 32 1 47 -4 62 -20z m3717 -313 c16 -2 44 -8 60 -12 30 -9
30 -10 28 -74 -4 -136 -69 -262 -208 -399 -114 -113 -143 -128 -163 -85 -6 13
-25 40 -42 59 -30 35 -31 40 -29 114 3 101 19 150 81 253 64 106 76 120 102
120 12 0 37 9 56 19 19 11 46 17 60 14 13 -2 38 -6 55 -9z m-3634 -37 c4 -14
26 -53 49 -85 l41 -60 -20 -41 c-29 -57 -168 -239 -286 -375 l-99 -115 -20 32
c-11 18 -34 66 -51 107 -27 65 -31 85 -28 150 6 159 37 228 141 317 31 26 67
57 80 68 22 19 87 31 157 29 23 -1 31 -7 36 -27z m4310 -26 c70 -26 117 -153
132 -353 3 -41 1 -48 -15 -49 -10 -1 -21 -2 -25 -3 -5 -1 -28 -6 -53 -10 -75
-14 -180 -69 -274 -144 -49 -40 -92 -72 -96 -72 -3 0 -26 18 -50 40 l-42 39 0
73 c1 94 7 125 38 196 39 89 71 128 165 202 48 38 94 76 101 85 14 17 71 15
119 -4z m-3631 -84 c41 -106 59 -172 68 -242 l7 -60 -70 -18 c-43 -11 -84 -29
-108 -48 -23 -19 -52 -32 -75 -34 -20 -2 -39 -3 -42 -4 -3 -1 -3 -30 -2 -66
l4 -65 -65 0 -65 0 -16 68 c-23 106 -29 152 -27 227 2 91 13 127 65 228 l43
82 74 4 c41 1 75 4 76 4 1 1 24 2 52 2 l51 0 30 -78z m-1160 14 c0 -33 -59
-181 -133 -331 -41 -85 -79 -167 -82 -183 -9 -34 -20 -41 -67 -44 -57 -2 -76
26 -81 117 -4 84 7 168 27 214 8 17 20 47 27 65 7 19 42 65 77 102 61 65 66
68 115 71 109 6 117 6 117 -11z m5500 -96 c30 -15 58 -33 62 -39 15 -22 0
-154 -23 -198 -40 -81 -75 -108 -267 -210 -35 -19 -85 -53 -112 -76 -66 -57
-96 -52 -129 23 -38 88 -19 162 84 332 25 40 45 77 45 82 0 15 35 38 75 51 55
16 106 40 133 61 27 20 49 16 132 -26z m-6538 -214 c24 -5 86 -19 138 -30 52
-12 106 -24 119 -27 170 -36 197 -51 193 -110 -5 -70 -30 -143 -50 -142 -15 1
-213 -7 -449 -17 l-93 -4 6 47 c9 79 23 132 48 178 14 27 22 57 21 77 -3 36 2
50 15 42 5 -3 28 -9 52 -14z m-3357 -16 c6 -1 25 -6 43 -10 17 -4 32 -11 32
-15 0 -4 -9 -38 -20 -74 -21 -66 -47 -119 -82 -165 -10 -13 -18 -33 -18 -43 0
-15 -5 -18 -16 -14 -9 4 -56 21 -105 39 -67 24 -89 36 -89 50 0 36 24 113 49
156 22 37 33 46 74 56 27 7 54 18 60 24 11 11 21 10 72 -4z m883 -123 c21 -43
22 -52 11 -102 -13 -61 -35 -110 -84 -185 -61 -93 -76 -127 -88 -200 l-11 -73
-26 17 c-30 20 -65 57 -82 91 -7 14 -25 41 -40 61 -32 42 -34 59 -13 141 19
71 92 224 136 283 4 6 45 11 91 12 l83 2 23 -47z m2186 -88 c20 -30 41 -54 47
-54 6 0 9 -12 7 -27 -3 -27 -5 -28 -78 -30 -41 -2 -97 -5 -123 -7 l-49 -3 7
46 c3 25 11 65 17 88 10 40 12 42 52 45 70 5 83 -1 120 -58z m-2787 2 c20 -17
21 -27 18 -95 -5 -86 -9 -113 -35 -261 -11 -58 -21 -123 -24 -145 -3 -22 -5
-40 -6 -40 -15 0 -68 2 -76 3 -6 1 -30 47 -53 102 -23 56 -54 122 -68 148 -24
43 -25 50 -15 98 6 28 22 85 37 127 30 85 26 82 145 82 40 0 61 -5 77 -19z
m5138 -210 c44 -4 116 -17 160 -29 44 -12 82 -21 85 -20 3 1 44 5 90 9 222 20
283 -7 292 -130 l2 -38 86 3 85 3 0 -64 0 -64 -40 -10 c-22 -6 -50 -17 -62
-23 -21 -12 -44 -16 -198 -28 -38 -3 -92 -7 -120 -10 -51 -4 -196 -16 -250
-20 -16 -1 -82 -6 -145 -11 -63 -5 -230 -9 -370 -9 -358 0 -414 15 -445 118
l-14 47 27 0 c255 3 640 11 682 15 89 7 234 26 238 30 8 8 -58 34 -123 48 -70
16 -115 17 -558 3 -139 -4 -233 11 -308 50 -30 16 -62 28 -71 27 -10 0 -18 0
-18 1 -10 31 -9 77 2 80 15 6 127 13 328 22 80 3 146 7 147 8 5 4 433 -2 498
-8z m855 -11 c14 -7 61 -13 105 -14 123 -1 173 -20 255 -98 38 -36 68 -69 65
-73 -3 -5 -1 -11 5 -15 5 -3 11 2 12 12 0 10 2 25 3 33 0 8 -2 26 -6 40 -4 14
-10 38 -14 54 l-6 28 81 -6 c144 -12 269 -66 344 -149 76 -84 139 -222 152
-332 4 -27 8 -52 9 -53 11 -12 29 56 34 128 5 76 8 85 25 85 47 0 217 -392
250 -575 10 -55 19 -150 20 -215 l1 -60 -62 -3 -62 -3 -25 39 c-13 21 -31 46
-40 55 -22 22 -35 59 -32 91 5 38 -14 17 -24 -27 -4 -20 -5 -39 -2 -42 4 -4
12 -24 18 -45 11 -35 10 -41 -11 -60 -24 -22 -23 -22 -136 -4 -97 15 -154 154
-158 382 -1 35 -5 61 -10 58 -26 -16 -39 -197 -26 -372 l7 -92 -36 -4 c-20 -2
-40 1 -45 6 -17 25 -44 166 -56 306 -4 36 -8 66 -10 68 -6 7 -61 -27 -84 -52
-14 -14 -27 -26 -31 -26 -4 0 -19 33 -35 73 -71 184 -180 370 -307 523 -79 94
-205 212 -270 252 -21 13 -39 30 -39 38 -1 8 -2 24 -3 37 -1 12 -1 26 2 30 5
11 112 -3 142 -18z m925 3 c84 -21 99 -33 254 -196 20 -22 27 -37 30 -64 1 -5
11 -8 22 -8 22 0 22 1 4 85 -8 39 -25 103 -31 119 -3 8 19 25 57 46 55 29 67
32 118 27 77 -8 204 -74 284 -147 60 -55 64 -57 76 -38 9 15 9 27 1 54 -6 18
-9 38 -6 42 5 9 976 8 1031 -1 17 -2 62 -8 100 -11 127 -13 272 -50 322 -82
28 -17 44 -48 53 -96 l7 -37 -453 3 -454 2 0 -43 c0 -40 2 -43 28 -43 71 1
500 -11 527 -14 17 -3 50 -7 75 -10 25 -4 70 -11 100 -16 30 -5 71 -12 90 -15
27 -5 152 -32 265 -59 49 -11 55 -18 55 -58 0 -32 -3 -39 -16 -34 -60 23 -372
24 -619 1 -59 -5 -326 -6 -355 -1 -14 3 -41 7 -60 10 -54 8 -119 34 -172 67
-47 30 -88 84 -144 188 -16 30 -50 76 -76 101 -27 26 -48 56 -48 67 0 16 -5
19 -24 16 l-23 -5 52 -166 c86 -276 112 -343 166 -434 l32 -53 1 -195 c1 -240
-3 -254 -100 -318 -36 -24 -73 -42 -82 -40 -12 2 -22 38 -43 143 -38 187 -39
194 -47 240 l-6 40 -9 -60 c-5 -33 -8 -100 -7 -149 l1 -89 -23 15 c-42 28 -89
106 -142 235 -28 70 -65 148 -82 173 -16 25 -32 54 -35 65 -3 12 -12 19 -22
17 -12 -2 -22 8 -32 32 -22 51 -35 54 -35 7 0 -39 6 -45 35 -42 6 0 21 -30 33
-67 33 -94 50 -130 90 -186 33 -48 34 -52 30 -125 -3 -43 -12 -92 -22 -113
-18 -37 -18 -37 -46 -23 -53 28 -92 105 -106 214 -34 266 -369 737 -648 912
-85 54 -86 54 -86 95 l0 42 38 -5 c20 -2 55 -9 77 -15z m-7366 -37 c46 -43 47
-52 27 -151 -5 -21 -27 -143 -43 -238 -3 -18 -10 -35 -14 -38 -5 -3 -34 6 -63
19 -39 18 -65 39 -90 74 -47 64 -56 126 -42 280 8 93 0 86 116 91 64 3 66 2
109 -37z m3829 -21 c72 -70 180 -196 227 -263 29 -41 46 -57 63 -57 27 0 27 1
-24 128 -40 100 -61 201 -44 212 12 8 116 4 180 -5 160 -25 305 -122 385 -258
30 -53 85 -182 85 -201 -1 -6 -10 6 -21 27 -18 35 -23 38 -59 35 -22 -1 -40
-5 -40 -9 0 -14 62 -122 116 -206 30 -45 76 -101 103 -125 37 -34 50 -53 54
-81 3 -20 1 -37 -3 -37 -26 0 -123 98 -181 183 -29 41 -46 57 -62 57 -17 0
-26 9 -36 37 -13 35 -55 83 -72 83 -10 0 11 -50 28 -68 7 -7 13 -24 13 -38 0
-13 3 -23 8 -23 28 5 41 -4 47 -33 27 -126 175 -315 322 -414 78 -52 83 -59
83 -125 l0 -57 -67 14 c-223 46 -399 225 -584 594 -76 152 -104 190 -135 186
-27 -4 -28 -26 -6 -113 38 -149 112 -278 232 -406 l73 -78 -13 -54 c-19 -80
-19 -80 -86 -60 -92 26 -170 73 -243 145 -96 94 -158 187 -284 430 -88 170
-133 254 -165 305 -38 62 -121 165 -158 197 -19 17 -34 34 -34 39 0 16 182 86
231 88 9 1 39 -22 67 -49z m6077 6 c224 -26 395 -136 567 -364 82 -108 79
-105 142 -184 37 -46 46 -64 46 -96 0 -41 15 -57 39 -43 9 6 10 20 5 47 -3 21
-8 47 -10 58 -16 88 -64 201 -108 254 -22 25 -26 40 -26 90 l0 60 36 -10 c20
-5 45 -11 56 -13 55 -11 175 -48 211 -66 23 -11 53 -21 67 -23 14 -3 45 -8 70
-11 96 -15 172 -62 224 -138 19 -29 57 -111 85 -183 27 -73 60 -151 74 -175
21 -35 27 -60 29 -124 3 -74 2 -80 -17 -80 -13 0 -26 12 -37 35 -9 19 -44 91
-77 160 -33 69 -79 149 -101 178 -22 29 -40 61 -40 72 0 15 -6 19 -22 16 -18
-2 -22 -9 -20 -27 7 -48 45 -147 104 -269 124 -257 148 -332 145 -449 -2 -58
-9 -90 -30 -135 -15 -32 -27 -64 -27 -70 0 -22 -54 -64 -98 -77 -23 -7 -44
-10 -47 -8 -4 5 -12 123 -15 214 -1 35 -2 38 -14 23 -7 -10 -25 -60 -41 -110
l-27 -93 -85 -2 c-76 -3 -84 -1 -79 15 2 9 18 62 35 117 75 249 98 410 79 550
-7 49 -35 131 -55 162 -8 12 -17 42 -19 65 -5 49 -6 50 -29 42 -14 -6 -16 -14
-11 -43 4 -20 9 -54 12 -76 2 -22 7 -46 9 -53 17 -47 25 -303 13 -400 -10 -83
-47 -179 -94 -248 -27 -40 -41 -70 -37 -80 5 -13 3 -15 -13 -6 -61 33 -83 89
-84 212 l0 75 -20 -25 c-10 -14 -38 -73 -61 -132 l-42 -106 -41 -4 c-22 -1
-51 -2 -62 0 -21 3 -22 4 -8 60 67 280 64 416 -13 541 -16 25 -30 64 -32 86
-4 54 -8 55 -22 4 -8 -31 -9 -79 -4 -159 17 -258 10 -296 -89 -435 -36 -49
-69 -94 -73 -100 -5 -5 -45 -10 -89 -10 l-79 0 2 30 c0 17 5 68 9 115 5 47 8
189 9 315 0 203 -3 243 -24 340 -36 173 -114 362 -249 604 l-30 53 20 23 c11
13 28 22 37 20 9 -1 43 -6 76 -9z m-6791 -41 c102 -27 153 -85 216 -250 28
-72 65 -116 94 -111 14 2 20 10 18 22 -7 44 -35 114 -60 155 -22 34 -29 58
-31 107 l-2 62 38 -17 c121 -55 189 -130 333 -368 40 -66 95 -149 123 -184 36
-47 50 -73 52 -102 2 -36 1 -38 -19 -27 -50 26 -164 109 -201 145 -46 45 -85
61 -85 35 0 -28 48 -121 94 -186 76 -106 264 -274 368 -330 l35 -19 -15 -39
c-35 -89 -129 -82 -272 20 -128 92 -290 278 -355 409 l-30 60 -62 -1 c-40 -1
-63 -5 -63 -12 0 -21 58 -123 104 -182 59 -78 146 -162 234 -228 l72 -55 0
-59 0 -58 -32 9 c-170 48 -252 114 -382 308 -48 71 -106 151 -129 178 -24 27
-42 57 -41 69 1 17 -3 20 -23 16 -22 -4 -24 -8 -18 -45 4 -22 14 -56 22 -75 8
-19 12 -36 10 -39 -3 -2 -33 22 -67 53 -152 142 -256 354 -290 597 -7 48 -10
91 -7 93 3 3 42 7 86 9 l81 4 40 -59 c22 -32 44 -61 49 -65 6 -3 8 -15 6 -28
-4 -21 -4 -21 10 -3 8 11 15 25 16 30 0 6 2 27 5 46 2 19 4 56 5 83 0 26 3 47
7 47 4 0 34 -7 66 -15z m-514 -166 c-5 -18 -17 -41 -27 -51 -39 -43 -192 -100
-302 -113 -30 -4 -61 -8 -70 -10 -18 -3 -133 -15 -196 -20 -170 -14 -306 -42
-387 -79 -31 -14 -60 -31 -63 -36 -3 -6 -26 -10 -51 -10 -56 0 -50 -14 13 -30
89 -22 217 -13 293 22 25 11 61 22 80 24 19 3 78 9 130 15 52 6 169 12 260 14
249 6 325 -11 398 -88 39 -41 39 -41 -78 -62 -53 -10 -127 -12 -255 -8 -324 9
-328 9 -470 -30 -133 -36 -283 -68 -345 -72 -19 -1 -42 -3 -51 -4 -15 -1 -15
-5 -10 -77 1 -13 204 -12 343 1 77 7 186 31 203 45 10 8 128 16 350 25 55 2
167 7 249 10 107 5 146 4 141 -4 -12 -20 -80 -49 -161 -70 -101 -25 -174 -38
-329 -57 -22 -2 -56 -6 -75 -9 -19 -2 -73 -7 -120 -10 -47 -4 -103 -8 -125
-10 -103 -9 -366 -18 -518 -19 l-168 -1 -3 100 c-4 115 -25 209 -67 295 -16
33 -29 64 -29 69 0 25 209 94 395 131 82 15 181 38 285 64 8 2 42 16 74 30 64
28 83 30 376 41 96 4 176 8 177 8 1 1 33 3 72 5 l70 2 -9 -31z m-1567 -233
c21 -29 22 -41 22 -216 l0 -185 37 -75 c90 -182 317 -410 558 -560 58 -36 70
-47 70 -67 0 -17 -25 -19 -120 -11 -216 19 -353 106 -488 308 -63 95 -67 99
-92 93 -14 -4 -20 3 -25 25 -3 17 -13 36 -21 43 -8 7 -14 29 -14 55 0 39 -5
48 -47 86 -26 24 -58 53 -70 65 -13 12 -23 18 -23 13 0 -19 42 -104 71 -145
17 -24 28 -48 25 -54 -5 -7 3 -11 18 -11 23 0 26 -4 26 -39 0 -33 4 -40 24
-45 19 -5 29 -19 46 -70 40 -121 112 -219 203 -278 55 -35 64 -68 18 -68 -48
0 -127 18 -173 40 -82 38 -124 87 -227 268 -24 40 -56 89 -73 108 -24 27 -31
45 -32 80 -1 39 -4 44 -23 44 -31 0 -30 -22 7 -133 52 -153 137 -293 215 -353
30 -23 35 -32 35 -69 l0 -44 -63 18 c-71 21 -117 42 -164 77 -31 24 -73 32
-73 15 0 -25 33 -82 58 -100 23 -16 29 -28 30 -60 2 -48 -7 -51 -79 -23 -65
24 -137 76 -182 131 -54 66 -122 210 -151 321 -23 91 -28 122 -41 235 -3 28
-8 66 -10 85 -3 19 -5 59 -7 90 l-1 55 -16 -35 c-12 -26 -16 -69 -16 -172 0
-88 -4 -134 -10 -130 -9 5 -55 47 -141 129 -22 20 -32 37 -28 47 5 12 0 16
-19 16 -20 0 -28 7 -37 34 -6 19 -17 36 -23 39 -12 5 -13 -1 -8 -66 1 -13 6
-17 19 -12 16 4 22 -5 37 -62 35 -129 86 -221 174 -315 43 -44 51 -59 51 -91
l0 -39 -42 34 c-66 51 -148 153 -188 231 -22 45 -57 78 -74 71 -18 -7 -16 -21
21 -134 46 -142 143 -278 246 -347 23 -16 43 -37 45 -49 3 -20 0 -21 -44 -13
-119 22 -202 94 -312 271 -40 65 -77 120 -83 123 -5 4 -9 17 -9 31 0 19 -5 24
-25 24 -22 0 -24 -3 -19 -32 31 -178 102 -302 235 -410 39 -31 45 -41 43 -70
-1 -18 -2 -35 -3 -38 0 -3 -17 -6 -37 -8 -40 -2 -34 -7 -214 159 -52 48 -105
96 -118 107 -16 14 -26 38 -32 77 -5 31 -18 72 -29 91 -18 30 -19 48 -16 196
4 185 8 212 42 323 44 145 54 159 123 185 33 12 62 21 64 19 2 -2 12 -29 23
-59 l21 -55 47 -3 46 -3 -3 87 -3 88 30 2 c17 1 73 3 125 5 l95 3 20 -51 c40
-100 60 -105 110 -30 34 52 84 87 123 87 17 0 42 -55 57 -127 8 -38 15 -41 40
-13 13 14 17 33 15 67 -4 89 -1 114 18 146 17 29 22 32 63 29 24 -1 63 -2 87
-2 39 0 44 -4 57 -33 7 -17 15 -50 17 -73 6 -52 13 -63 37 -57 13 3 23 20 31
51 6 26 23 65 37 86 14 21 27 46 28 55 2 9 4 18 4 20 2 7 32 -23 54 -53z
m5337 20 c97 -4 184 -9 195 -11 11 -2 27 -4 35 -4 8 -1 26 -10 39 -20 l23 -18
-33 -21 c-35 -21 -132 -56 -185 -67 -94 -19 -222 -34 -339 -41 -22 -1 -159 -2
-305 -3 l-265 -2 37 -20 c46 -23 139 -45 233 -54 72 -6 96 -9 200 -21 33 -4
85 -16 115 -27 48 -18 75 -21 213 -19 87 1 156 -2 153 -7 -11 -17 -72 -40
-151 -56 -233 -48 -602 -38 -725 20 -14 6 -41 10 -60 9 -48 -2 -320 -15 -402
-18 -38 -2 -68 0 -68 3 0 11 40 71 47 71 5 0 22 13 38 28 17 16 40 28 53 27
14 -1 19 2 13 8 -16 16 -113 34 -171 31 -75 -3 -85 1 -108 44 -11 20 -29 54
-41 76 -12 21 -21 40 -19 41 2 2 50 6 108 10 58 3 130 8 160 10 30 2 102 7
160 10 58 3 128 8 155 10 28 2 129 6 225 10 96 4 176 8 177 9 4 3 331 -2 493
-8z m2970 -201 c58 -2 213 -7 345 -10 226 -6 241 -7 262 -27 26 -24 33 -96 11
-103 -7 -2 -58 -6 -113 -10 -55 -3 -149 -8 -210 -12 -149 -9 -525 -9 -605 0
-89 10 -115 15 -184 38 -33 12 -75 19 -93 17 -18 -2 -33 -4 -34 -3 0 0 -3 29
-5 64 l-5 63 263 -7 c145 -3 310 -8 368 -10z m2506 -109 c169 -59 210 -77 212
-93 2 -15 -8 -23 -55 -38 -83 -26 -121 -28 -167 -10 -22 9 -66 16 -98 16 -53
0 -60 2 -82 32 -44 59 -57 93 -46 121 5 14 7 26 4 26 -3 0 -2 5 1 10 3 6 10
10 14 10 5 0 102 -33 217 -74z m-12384 -82 c-6 -37 -65 -143 -94 -169 l-30
-27 30 -31 c36 -38 75 -114 68 -132 -3 -9 -31 -13 -102 -12 -155 0 -204 21
-204 85 0 64 49 140 163 253 40 40 56 48 90 51 71 5 82 3 79 -18z m9993 -58
c22 -2 69 -7 105 -10 36 -3 75 -8 86 -10 12 -2 39 -7 60 -11 47 -7 115 -26
129 -35 6 -4 40 -15 78 -25 37 -10 68 -23 68 -29 1 -6 2 -26 3 -44 l2 -33 -85
6 c-47 3 -104 8 -126 10 -22 2 -67 6 -100 10 -33 3 -71 7 -85 10 -14 2 -56 7
-95 10 -38 3 -81 8 -95 10 -99 14 -271 24 -447 26 l-141 1 -21 55 c-12 30 -19
59 -15 64 5 8 596 5 679 -5z m-3500 -70 c43 -10 91 -24 106 -31 14 -8 28 -13
30 -11 2 2 72 7 154 10 198 8 398 17 460 21 28 1 53 1 56 -1 14 -8 -28 -118
-47 -124 -33 -12 -593 -3 -909 15 -38 2 -168 5 -287 6 l-217 1 -21 54 c-11 30
-20 59 -20 64 0 12 79 15 370 14 192 -1 262 -5 325 -18z m-3855 -10 c126 -8
165 -14 230 -38 63 -23 67 -23 255 -14 77 3 201 8 275 11 l135 4 -40 -19 c-22
-10 -54 -21 -70 -24 -102 -19 -209 -35 -270 -41 -38 -3 -86 -8 -105 -10 -19
-2 -84 -7 -145 -11 -165 -11 -965 -8 -965 4 0 14 28 47 71 83 59 49 38 45 324
55 99 4 182 8 183 9 2 2 9 2 15 0 7 -2 55 -6 107 -9z m9669 -11 c41 -3 99 -15
130 -26 31 -12 90 -33 131 -47 41 -14 76 -26 78 -27 2 -2 -28 -77 -34 -84 -9
-10 -225 -12 -276 -2 -68 12 -137 42 -161 69 -19 21 -50 109 -43 121 5 7 52 6
175 -4z m-2866 -130 c27 -4 56 -8 65 -10 10 -1 44 -6 77 -10 33 -3 76 -8 95
-11 162 -18 194 -22 270 -30 36 -3 72 -7 80 -9 9 -2 43 -6 75 -10 33 -4 67 -9
75 -10 8 -1 35 -6 60 -10 111 -18 193 -35 221 -46 l27 -11 -17 -38 c-9 -21
-23 -41 -32 -43 -23 -6 -467 0 -509 7 -19 3 -69 10 -110 15 -163 23 -291 65
-385 128 -27 18 -55 33 -62 33 -8 0 -13 14 -13 36 0 29 3 34 18 31 9 -3 39 -8
65 -12z m-6253 -172 c0 -15 -136 -55 -230 -68 -89 -13 -184 -36 -229 -56 -34
-15 -75 -22 -153 -26 -103 -5 -108 -4 -108 15 0 17 16 26 83 48 45 15 102 36
127 47 52 24 51 24 275 33 94 3 171 7 172 8 3 2 63 2 63 -1z m9170 -28 c180
-37 176 -35 175 -81 l0 -39 -112 -2 c-101 -2 -116 0 -161 23 -37 18 -53 33
-61 56 -17 48 -14 78 7 73 9 -2 78 -15 152 -30z m-12448 -8 c19 -8 53 -14 76
-13 47 2 49 -2 25 -51 -23 -50 -98 -82 -273 -118 -26 -5 -134 -19 -154 -19
-16 0 -19 9 -22 62 -4 61 -3 64 37 107 24 26 51 45 67 47 61 7 213 -2 244 -15z
m197 -251 c19 -20 20 -27 11 -52 -19 -50 -50 -73 -159 -115 -58 -22 -120 -49
-138 -59 -32 -19 -140 -33 -148 -20 -3 4 2 44 11 88 l16 80 82 21 c44 12 106
35 136 51 73 38 157 40 189 6z m234 -297 c-19 -31 -37 -51 -110 -114 -41 -36
-45 -37 -120 -36 -83 0 -101 3 -146 20 -16 6 -39 11 -53 11 -17 0 -24 5 -24
20 0 11 6 20 13 21 6 0 21 2 32 4 11 2 56 9 100 15 79 12 188 47 224 72 11 8
37 14 60 15 l41 2 -17 -30z"/>
<path d="M5282 12446 c0 -119 -111 -403 -197 -504 l-35 -40 32 -27 c58 -49
129 -26 332 108 l108 71 -5 61 c-12 132 -47 224 -109 287 -31 31 -104 78 -122
78 -2 0 -4 -15 -4 -34z"/>
<path d="M5908 12070 c4 -34 7 -40 28 -40 22 0 23 2 12 28 -27 63 -45 68 -40
12z"/>
<path d="M5986 12008 c-3 -13 -6 -44 -6 -69 0 -55 -25 -93 -73 -108 -56 -17
-151 -29 -244 -30 -24 -1 -43 -5 -43 -10 0 -5 23 -44 51 -87 54 -82 174 -208
317 -332 54 -47 76 -72 65 -72 -13 0 -27 -18 -46 -59 -32 -70 -68 -96 -156
-114 -33 -7 -63 -15 -66 -19 -20 -20 89 -197 175 -287 l52 -54 -5 -76 c-8
-131 -25 -149 -152 -170 -120 -19 -188 -19 -264 0 -40 10 -86 17 -102 15 -23
-3 -30 1 -34 18 -22 99 -29 217 -16 273 7 27 29 71 49 99 31 40 37 57 36 89
-1 22 -3 51 -3 64 -1 24 -1 24 -19 5 -10 -10 -35 -32 -56 -49 -41 -32 -81 -94
-97 -147 -17 -61 -13 -221 11 -343 34 -178 52 -409 36 -455 -3 -8 -7 -31 -10
-50 -3 -19 -21 -116 -41 -215 -19 -99 -38 -191 -40 -205 -3 -14 -7 -36 -10
-50 -2 -14 -7 -36 -9 -50 -3 -14 -12 -61 -21 -105 -9 -44 -18 -96 -21 -115 -3
-19 -13 -75 -23 -125 -21 -107 -19 -176 9 -244 11 -28 29 -73 40 -101 15 -38
18 -61 13 -97 -4 -26 -7 -56 -6 -65 3 -62 -3 -59 61 -34 31 12 78 34 104 49
l48 27 14 -34 c18 -42 39 -142 38 -178 0 -15 3 -30 7 -33 9 -5 61 64 61 82 0
6 7 16 15 23 19 15 55 2 103 -39 25 -22 33 -36 35 -69 l2 -41 23 21 c12 12 22
25 22 30 0 23 56 88 88 104 28 13 51 15 116 10 45 -3 95 -9 112 -12 27 -5 31
-3 41 28 28 85 236 668 283 793 82 217 185 456 264 610 71 138 201 346 246
393 22 23 22 29 16 155 -3 71 -8 132 -10 134 -8 8 -61 -65 -87 -122 -16 -33
-38 -99 -50 -148 -20 -78 -25 -88 -48 -94 -38 -9 -93 -38 -120 -64 -23 -22
-27 -22 -105 -11 -45 6 -143 33 -218 59 l-138 48 5 65 c15 218 138 348 385
405 124 28 117 25 94 42 -10 8 -40 26 -66 39 l-48 24 0 75 c0 83 14 128 51
162 26 23 46 28 154 38 39 3 84 8 100 10 17 2 57 7 90 10 63 6 130 13 180 20
17 2 56 7 88 10 31 4 57 10 57 14 0 3 -37 40 -81 81 -69 64 -139 147 -139 164
0 3 29 21 64 41 47 26 85 39 147 48 78 11 84 14 81 34 -2 15 -14 26 -39 34
-49 16 -73 15 -117 -6 -29 -14 -63 -18 -149 -18 -122 -1 -160 11 -205 61 -18
20 -50 106 -66 175 -1 5 -13 -2 -27 -15 -14 -13 -38 -33 -52 -45 -38 -32 -73
-89 -101 -164 -41 -109 -81 -345 -90 -529 -1 -30 12 -30 -291 -4 -46 4 -65 11
-81 29 -21 23 -21 27 -9 92 24 120 52 183 150 334 95 145 128 221 141 318 3
25 7 56 9 68 2 13 0 25 -5 28 -12 7 -30 -46 -32 -93 0 -16 -10 -27 -33 -36
-18 -8 -35 -18 -39 -24 -10 -17 -117 -3 -178 22 -40 17 -101 81 -125 131 -19
41 -28 44 -37 13z m115 -347 c0 -14 1 -43 3 -63 3 -36 1 -38 -28 -39 -17 0
-56 -1 -86 -2 l-55 -2 -3 62 c-3 70 -8 67 106 69 61 2 62 1 63 -25z m920 -224
c0 -18 2 -47 3 -65 l3 -33 -58 5 c-69 7 -84 12 -127 44 l-33 25 33 14 c34 15
125 38 159 40 15 1 19 -5 20 -30z m-1408 -1098 c37 -7 67 -16 67 -20 0 -3 -13
-50 -30 -103 -30 -97 -38 -133 -39 -173 -1 -20 -6 -23 -45 -23 l-44 0 -12 53
c-31 133 -20 294 18 283 9 -2 47 -10 85 -17z m1027 -205 c0 -9 -15 -48 -34
-88 -25 -55 -54 -94 -119 -161 -47 -49 -96 -90 -107 -92 -21 -3 -22 -1 -16 70
6 70 32 191 55 249 11 29 19 31 159 35 49 1 62 -1 62 -13z m-777 -90 c-3 -142
-14 -244 -34 -315 -12 -41 -23 -98 -26 -127 -5 -51 -4 -53 14 -43 32 17 91 95
138 184 46 86 110 248 121 305 4 20 12 32 23 33 9 0 37 2 63 4 l48 4 11 -42
c6 -23 13 -87 15 -143 4 -105 -15 -206 -54 -284 -28 -57 -98 -162 -144 -215
-102 -117 -86 -106 -164 -106 -41 0 -88 7 -110 16 -34 13 -45 27 -87 108 l-47
92 4 116 c6 162 37 272 121 434 21 39 46 53 90 50 18 -2 20 -8 18 -71z m-298
-165 c2 -3 7 -52 10 -110 3 -57 8 -141 10 -187 5 -81 4 -82 -18 -77 -21 5 -45
9 -118 21 l-36 6 12 67 c13 67 36 132 82 232 23 50 40 65 58 48z m844 -326
c-1 -34 -10 -85 -20 -113 -10 -28 -16 -67 -14 -88 l3 -37 -108 -3 -109 -3 14
60 c8 33 36 102 61 154 41 82 53 97 88 115 l41 20 23 -21 c20 -18 23 -30 21
-84z m-901 -180 c20 -16 70 -61 111 -100 124 -118 192 -143 331 -122 30 4 92
11 138 15 73 6 85 5 103 -12 18 -16 20 -26 15 -69 -15 -113 -32 -143 -143
-252 -64 -62 -111 -100 -121 -98 -14 2 -113 7 -402 19 l-45 2 -55 105 c-30 58
-63 117 -74 132 -16 24 -18 40 -13 115 3 48 11 103 18 122 11 32 89 170 97
170 2 0 20 -12 40 -27z"/>
<path d="M8092 11943 c-152 -24 -284 -78 -453 -188 l-69 -45 -1 -52 c-2 -103
5 -160 37 -303 13 -60 26 -121 29 -134 6 -33 7 -33 61 -21 78 18 116 39 161
89 l42 47 -14 68 c-16 78 -29 96 -85 121 -22 10 -40 23 -40 29 0 22 58 112 92
142 19 17 75 55 124 84 49 29 115 70 146 91 31 22 67 39 78 39 16 0 21 5 18
23 -4 27 -16 28 -126 10z"/>
<path d="M14278 10284 c-42 -130 -41 -139 22 -201 l32 -32 25 47 c14 26 33 58
44 73 10 14 16 29 13 32 -5 5 -9 30 -13 94 -1 21 -65 103 -80 103 -3 0 -23
-52 -43 -116z"/>
<path d="M8320 9574 c0 -17 104 -101 230 -187 74 -51 166 -122 203 -159 72
-72 79 -74 162 -51 30 8 145 65 151 74 3 5 -30 25 -73 45 -114 54 -204 117
-271 189 l-59 64 -74 5 c-189 13 -254 18 -261 23 -5 2 -8 1 -8 -3z"/>
<path d="M11389 8472 c-7 -41 -10 -105 -6 -171 11 -203 98 -400 275 -623 93
-116 289 -309 452 -443 25 -20 63 -52 85 -70 22 -18 84 -69 137 -113 l98 -80
44 13 c80 24 97 40 116 105 7 26 4 30 -69 73 -42 25 -142 78 -222 116 -188 90
-255 130 -322 191 -52 47 -125 157 -160 240 -9 19 -22 51 -31 71 -8 19 -38
107 -66 195 -28 87 -69 215 -91 283 -22 68 -52 151 -67 184 l-27 60 -67 17
-66 17 -13 -65z"/>
<path d="M12370 8400 c0 -6 7 -25 16 -42 9 -17 47 -111 85 -209 67 -175 124
-299 160 -350 10 -14 19 -47 20 -72 l3 -47 78 2 c42 1 83 5 89 9 13 8 2 65
-37 194 -59 190 -187 390 -292 456 -17 11 -35 32 -38 45 -5 20 -12 24 -45 24
-21 0 -39 -5 -39 -10z"/>
<path d="M7274 7364 c-14 -68 -12 -78 21 -144 55 -107 118 -162 187 -159 81 3
80 0 41 92 -90 214 -103 231 -191 243 l-49 6 -9 -38z"/>
<path d="M7029 7163 c-3 -191 -98 -396 -290 -623 l-63 -75 2 -64 c1 -36 4 -66
6 -68 2 -2 39 23 82 55 90 68 168 148 309 317 27 33 62 74 77 90 33 36 34 39
24 155 -7 90 -15 119 -50 187 -26 51 -49 73 -80 73 -12 0 -16 -11 -17 -47z"/>
<path d="M13329 7048 c0 -7 -4 -35 -8 -62 -8 -45 -5 -55 27 -118 l36 -69 40 7
c65 11 113 31 155 65 22 17 44 28 50 24 6 -3 11 -3 11 2 0 13 -76 56 -193 112
-60 28 -110 51 -113 51 -2 0 -4 -6 -5 -12z"/>
<path d="M14169 6773 c-10 -146 -55 -225 -155 -272 -24 -12 -44 -27 -45 -34
-10 -149 8 -359 38 -447 14 -41 26 -81 26 -87 2 -49 98 142 146 287 42 131 59
237 57 355 -2 84 -7 110 -29 158 -27 59 -36 69 -38 40z"/>
<path d="M6593 6202 c-39 -4 -40 -11 -17 -93 9 -33 30 -75 49 -96 18 -21 31
-46 29 -55 -2 -13 5 -18 23 -18 l25 0 -6 93 c-3 50 -5 110 -6 133 0 44 -2 45
-97 36z"/>
<path d="M6381 5886 c-6 -25 -11 -59 -11 -76 0 -34 57 -162 101 -226 26 -38
32 -41 66 -39 21 1 41 3 44 4 7 1 -71 212 -97 263 -22 44 -76 118 -85 118 -3
0 -12 -20 -18 -44z"/>
<path d="M13942 5733 c-17 -82 -8 -127 40 -205 27 -43 53 -59 70 -42 18 17
-69 294 -93 294 -4 0 -12 -21 -17 -47z"/>
<path d="M6239 5564 c0 -5 -2 -25 -4 -44 -13 -131 -38 -206 -90 -268 -21 -25
-23 -36 -20 -102 2 -41 5 -108 6 -147 1 -40 6 -73 10 -73 5 0 25 25 45 56 121
189 163 398 104 519 -21 43 -49 76 -51 59z"/>
<path d="M13845 5327 c2 -12 6 -44 10 -72 8 -61 25 -103 55 -133 12 -13 25
-35 29 -50 7 -24 12 -27 47 -24 21 2 40 4 41 6 2 1 -11 38 -29 82 -46 113 -91
185 -127 200 -28 12 -29 11 -26 -9z"/>
<path d="M5862 4755 c-11 -13 -45 -53 -77 -87 -111 -121 -158 -216 -148 -298
5 -46 42 -118 73 -142 29 -23 23 -32 66 107 39 129 78 200 143 265 l57 58 -17
39 c-9 22 -31 50 -47 62 l-30 21 -20 -25z"/>
<path d="M2112 8560 c-64 -15 -122 -42 -122 -56 0 -8 9 -33 21 -56 77 -151
363 -325 654 -398 108 -27 128 -26 120 3 -30 96 -133 206 -256 271 -190 100
-272 150 -322 196 -30 28 -56 50 -58 49 -2 -1 -19 -5 -37 -9z"/>
<path d="M3251 7856 c-22 -24 -23 -27 -11 -78 7 -29 19 -68 27 -87 l14 -33 87
5 c48 3 88 6 89 6 9 4 -36 117 -63 159 -33 49 -36 52 -77 52 -33 0 -49 -6 -66
-24z"/>
<path d="M11185 5752 c-48 -3 -52 -5 -78 -48 -15 -25 -27 -49 -27 -54 0 -4 -4
-10 -8 -12 -4 -1 -20 -19 -35 -39 -27 -35 -27 -36 -12 -87 9 -28 20 -54 25
-57 6 -3 10 -23 10 -43 0 -53 8 -59 71 -58 l56 1 -28 26 c-25 24 -27 30 -19
60 14 48 69 125 148 205 37 38 67 75 66 82 -1 6 -2 16 -3 20 -1 8 -66 10 -166
4z"/>
<path d="M10839 5302 c-40 -3 -35 6 -64 -144 -5 -26 15 -120 31 -142 8 -11 14
-31 14 -44 0 -21 4 -23 46 -21 l45 3 -8 40 c-4 23 -8 101 -8 173 0 80 -4 134
-10 136 -5 1 -26 1 -46 -1z"/>
<path d="M10567 4893 c-5 -4 2 -156 7 -161 2 -2 24 18 48 44 23 26 49 53 56
60 6 7 12 16 12 21 0 8 -117 43 -123 36z"/>
<path d="M9980 3351 c0 -37 2 -41 24 -41 23 0 24 2 15 29 -6 17 -17 35 -25 42
-12 10 -14 5 -14 -30z"/>
<path d="M10215 2914 c2 -10 4 -31 4 -46 1 -22 6 -28 22 -28 18 0 20 4 14 28
-3 15 -15 36 -25 46 -18 19 -19 19 -15 0z"/>
<path d="M11110 3354 c0 -15 51 -114 128 -249 47 -82 99 -179 114 -215 37 -85
28 -33 -19 108 -48 145 -120 306 -150 336 -22 23 -73 36 -73 20z"/>
<path d="M13337 3028 c1 -18 2 -36 2 -40 1 -12 41 -9 41 2 0 16 -29 70 -38 70
-4 0 -6 -15 -5 -32z"/>
<path d="M13384 2908 c3 -13 5 -41 5 -63 1 -34 4 -41 21 -41 25 0 26 30 4 86
-17 43 -37 54 -30 18z"/>
<path d="M6122 3269 c3 -40 5 -44 26 -41 19 3 23 -1 22 -20 -5 -54 0 -68 21
-68 18 0 20 4 15 26 -4 15 -18 43 -32 63 -13 19 -24 41 -24 47 0 6 -7 17 -16
25 -14 11 -15 7 -12 -32z"/>
</g>
</svg>
